<?xml version="1.0" encoding="utf-8"?>
<!-- Generator: Adobe Illustrator 16.0.4, SVG Export Plug-In . SVG Version: 6.00 Build 0)  -->
<!DOCTYPE svg PUBLIC "-//W3C//DTD SVG 1.1//EN" "http://www.w3.org/Graphics/SVG/1.1/DTD/svg11.dtd">
<svg version="1.1" xmlns="http://www.w3.org/2000/svg" xmlns:xlink="http://www.w3.org/1999/xlink" x="0px" y="0px" width="80px"
	 height="80px" viewBox="0 0 80 80" enable-background="new 0 0 80 80" xml:space="preserve">
<g id="BGs">
</g>
<g id="thin_Lines">
	<path fill="#1D1D1B" d="M40,27c-0.148,0-0.296,0.004-0.442,0.008l-0.475,0.011L21,35.797v5.807c0,5.404,8.346,9.636,19,9.636h0.277
		l18.721-9L59,36.642C59,31.235,50.654,27,40,27z M22.973,36.943l16.577-7.969l0.068-0.002c0.127-0.004,0.253-0.008,0.382-0.008
		c0.087,0,0.173,0.005,0.26,0.006l10.802,5.217l0.039,0.018c0.478,0.23,0.751,0.526,0.751,0.813c0,0.577-1.152,1.219-2.806,1.219
		c-0.775,0-1.502-0.143-2.044-0.403l-6.098-2.932c-0.609-0.293-1.414-0.455-2.264-0.455c-1.848,0-3.294,0.751-3.294,1.711
		c0,0.491,0.366,0.938,1.032,1.258l6.084,2.938c0.479,0.231,0.755,0.528,0.755,0.816c0,0.576-1.151,1.218-2.805,1.218
		c-0.779,0-1.509-0.144-2.053-0.405l-6.078-2.937c-0.607-0.292-1.412-0.453-2.265-0.453c-1.848,0-3.294,0.751-3.294,1.711
		c0,0.49,0.367,0.936,1.033,1.256l11.313,5.466c-7.634-0.189-14.005-2.658-16.102-5.998L22.973,36.943z M40.12,44.99l-12.15-5.87
		c-0.48-0.231-0.755-0.528-0.755-0.814c0-0.577,1.15-1.22,2.803-1.22c0.781,0,1.51,0.144,2.052,0.404l6.078,2.937
		c0.61,0.293,1.414,0.454,2.266,0.454c1.848,0,3.296-0.75,3.296-1.709c0-0.491-0.368-0.938-1.033-1.258l-6.084-2.938
		c-0.479-0.231-0.754-0.528-0.754-0.816c0-0.577,1.15-1.22,2.803-1.22c0.778,0,1.506,0.144,2.051,0.406l6.084,2.938l0.114,0.043
		l0.002-0.001c0.594,0.261,1.354,0.404,2.154,0.404c1.849,0,3.297-0.751,3.297-1.71c0-0.481-0.353-0.919-0.991-1.237l-9.905-4.783
		c8.535,0.342,15.506,3.661,15.588,7.573l-0.001,0.007v0.281L40.12,44.99z M22.965,41.604l0.003-1.776
		c2.616,3.308,9.159,5.669,16.841,5.708v3.739C30.658,49.227,22.965,45.733,22.965,41.604z M40.299,49.049v-3.65l16.734-7.998
		l0.002,3.603L40.299,49.049z"/>
</g>
</svg>
