<?xml version="1.0" encoding="utf-8"?>
<!-- Generator: Adobe Illustrator 16.0.4, SVG Export Plug-In . SVG Version: 6.00 Build 0)  -->
<!DOCTYPE svg PUBLIC "-//W3C//DTD SVG 1.1//EN" "http://www.w3.org/Graphics/SVG/1.1/DTD/svg11.dtd">
<svg version="1.1" xmlns="http://www.w3.org/2000/svg" xmlns:xlink="http://www.w3.org/1999/xlink" x="0px" y="0px" width="80px"
	 height="80px" viewBox="0 0 80 80" enable-background="new 0 0 80 80" xml:space="preserve">
<g id="BGs">
</g>
<g id="thin_Lines">
	<g>
		<path fill="#1D1D1B" d="M59.866,33.041l-9.849-4.735c-0.993-2.869-5.112-4.834-10.517-4.834c-5.406,0-9.525,1.966-10.517,4.835
			l-9.85,4.735L18,33.609v1.241l0.034,12.487l0.003,1.254l1.13,0.543l19.467,9.357l0.866,0.416l0.866-0.416l19.5-9.357L61,48.591
			v-1.259V34.844v-1.258L59.866,33.041z M47.997,29.673c0,2.18-3.812,3.952-8.497,3.952c-4.685,0-8.496-1.772-8.496-3.952
			c0-2.179,3.812-3.951,8.496-3.951C44.186,25.722,47.997,27.494,47.997,29.673z M31.004,31.151
			c1.208,1.747,4.505,2.974,8.496,2.974c3.991,0,7.29-1.227,8.497-2.974v3.693c0,2.179-3.812,3.951-8.497,3.951
			c-4.685,0-8.496-1.772-8.496-3.951V31.151z M30.504,29.795v5.05c0,2.496,3.952,4.451,8.996,4.451c5.045,0,8.997-1.955,8.997-4.451
			v-5.051l10.214,4.911l-19.21,9.22l-19.211-9.219L30.504,29.795z M20,47l0.001-11.877l19.25,9.236v12.21L20,47z M39.75,56.569
			v-12.21L59,35v12v0.332L39.75,56.569z"/>
		<path fill="#1D1D1B" d="M39.5,41.874c0.778,0,1.343-0.326,1.343-0.775c0-0.448-0.565-0.774-1.343-0.774
			c-0.779,0-1.344,0.326-1.344,0.774C38.156,41.548,38.721,41.874,39.5,41.874z M39.5,40.824c0.544,0,0.843,0.206,0.843,0.274
			s-0.299,0.275-0.843,0.275s-0.844-0.207-0.844-0.275S38.956,40.824,39.5,40.824z"/>
		<path fill="#1D1D1B" d="M26.512,35.277c0.778,0,1.343-0.326,1.343-0.776c0-0.449-0.565-0.775-1.343-0.775
			c-0.779,0-1.345,0.326-1.345,0.775C25.167,34.951,25.732,35.277,26.512,35.277z M26.512,34.226c0.544,0,0.843,0.207,0.843,0.275
			s-0.299,0.276-0.843,0.276c-0.545,0-0.845-0.208-0.845-0.276S25.967,34.226,26.512,34.226z"/>
		<path fill="#1D1D1B" d="M52.49,35.277c0.778,0,1.343-0.326,1.343-0.776c0-0.442-0.577-0.775-1.343-0.775
			c-0.779,0-1.345,0.326-1.345,0.775C51.146,34.951,51.711,35.277,52.49,35.277z M52.49,34.226c0.544,0,0.843,0.207,0.843,0.275
			s-0.299,0.276-0.843,0.276c-0.545,0-0.845-0.208-0.845-0.276S51.945,34.226,52.49,34.226z"/>
	</g>
</g>
</svg>
