<?xml version="1.0" encoding="utf-8"?>
<!-- Generator: Adobe Illustrator 16.0.4, SVG Export Plug-In . SVG Version: 6.00 Build 0)  -->
<!DOCTYPE svg PUBLIC "-//W3C//DTD SVG 1.1//EN" "http://www.w3.org/Graphics/SVG/1.1/DTD/svg11.dtd">
<svg version="1.1" xmlns="http://www.w3.org/2000/svg" xmlns:xlink="http://www.w3.org/1999/xlink" x="0px" y="0px" width="80px"
	 height="80px" viewBox="0 0 80 80" enable-background="new 0 0 80 80" xml:space="preserve">
<g id="BGs">
</g>
<g id="thin_Lines">
	<g>
		<path fill="#1D1D1B" d="M57.036,21.452c4.369,0,7.792-1.415,7.792-3.222s-3.423-3.223-7.792-3.223
			c-4.371,0-7.795,1.416-7.795,3.223S52.665,21.452,57.036,21.452z M50.317,19.251l1.598-0.771l1.661,0.806l-1.728,0.834
			C51.193,19.864,50.676,19.567,50.317,19.251z M52.488,18.202l1.749-0.846l1.662,0.806l-1.749,0.846L52.488,18.202z M55.479,20.89
			c-1.129-0.093-2.122-0.285-2.957-0.54l1.629-0.786l2.028,0.982L55.479,20.89z M56.509,20.941l0.241-0.118l0.265,0.129
			C56.843,20.951,56.677,20.946,56.509,20.941z M56.748,20.267l-2.023-0.98l1.75-0.846l2.01,0.975L56.748,20.267z M57.048,18.164
			l1.759-0.85l1.992,0.965l-1.745,0.856L57.048,18.164z M58.096,20.92l-0.776-0.376l1.737-0.853l1.763,0.854
			C60.021,20.733,59.104,20.865,58.096,20.92z M61.556,20.348l-1.93-0.936l1.744-0.855l2.012,0.975
			C62.922,19.839,62.306,20.119,61.556,20.348z M64.328,18.23c0,0.321-0.178,0.648-0.507,0.959l-1.882-0.912l1.936-0.949
			C64.167,17.621,64.328,17.928,64.328,18.23z M63.454,16.977L61.367,18l-1.987-0.963l2.016-0.974
			C62.259,16.312,62.957,16.628,63.454,16.977z M58.008,15.534c0.969,0.049,1.855,0.166,2.635,0.337l-1.837,0.888l-1.663-0.807
			L58.008,15.534z M58.232,17.036l-1.759,0.849l-1.663-0.806l1.759-0.85L58.232,17.036z M56.909,15.511l-0.34,0.164l-0.312-0.151
			C56.47,15.515,56.688,15.512,56.909,15.511z M55.256,15.593l0.739,0.359l-1.759,0.85l-1.537-0.745
			C53.438,15.845,54.298,15.685,55.256,15.593z M52.015,16.28l1.648,0.799l-1.749,0.845l-1.551-0.752
			C50.75,16.844,51.31,16.538,52.015,16.28z M50,17.551l1.341,0.65l-1.372,0.662c-0.145-0.209-0.228-0.422-0.228-0.633
			C49.741,18.004,49.834,17.775,50,17.551z"/>
		<path fill="#1D1D1B" d="M23.075,37.777c0.349,0,0.689-0.012,1.024-0.03l0.011,0.006l0.003-0.007c3.846-0.204,6.73-1.53,6.73-3.19
			c0-1.807-3.413-3.223-7.769-3.223c-4.355,0-7.767,1.416-7.767,3.223S18.719,37.777,23.075,37.777z M16.379,35.574l1.602-0.776
			l1.665,0.803l-1.74,0.844C17.253,36.188,16.736,35.892,16.379,35.574z M24.497,35.729l-1.705,0.832l-1.997-0.963l1.72-0.833
			L24.497,35.729z M23.087,34.488l1.753-0.85l1.974,0.96l-1.748,0.853L23.087,34.488z M20.222,35.322l-1.666-0.803l1.73-0.839
			l1.658,0.807L20.222,35.322z M21.465,37.209c-1.101-0.094-2.072-0.284-2.889-0.534l1.645-0.797l1.998,0.963L21.465,37.209z
			 M23.075,37.277c-0.199,0-0.392-0.006-0.585-0.012l0.303-0.148l0.33,0.159C23.106,37.276,23.091,37.277,23.075,37.277z
			 M24.201,37.241l-0.836-0.403l1.703-0.83l1.777,0.864C26.066,37.055,25.179,37.184,24.201,37.241z M27.579,36.674l-1.94-0.944
			l1.747-0.853l2.015,0.979C28.941,36.164,28.327,36.444,27.579,36.674z M30.343,34.556c0,0.321-0.177,0.648-0.505,0.959
			l-1.883-0.916l1.937-0.945C30.183,33.947,30.343,34.254,30.343,34.556z M29.473,33.302l-2.088,1.019l-1.972-0.959l2.007-0.973
			C28.28,32.638,28.977,32.953,29.473,33.302z M24.044,31.859c0.966,0.049,1.85,0.166,2.627,0.337l-1.83,0.887l-1.658-0.807
			L24.044,31.859z M24.269,33.36l-1.753,0.85l-1.658-0.807l1.753-0.85L24.269,33.36z M22.949,31.836l-0.337,0.163l-0.309-0.15
			C22.514,31.84,22.73,31.837,22.949,31.836z M21.304,31.918l0.736,0.358l-1.753,0.85l-1.531-0.745
			C19.493,32.17,20.35,32.009,21.304,31.918z M18.074,32.604l1.641,0.799l-1.732,0.84l-1.552-0.749
			C16.816,33.167,17.372,32.862,18.074,32.604z M16.066,33.875l1.341,0.646l-1.374,0.666c-0.144-0.209-0.226-0.422-0.226-0.632
			C15.808,34.329,15.9,34.1,16.066,33.875z"/>
		<path fill="#1D1D1B" d="M26.483,58.261c-1.13,0-1.982,0.465-1.982,1.082s0.852,1.082,1.982,1.082s1.982-0.465,1.982-1.082
			S27.613,58.261,26.483,58.261z M26.483,59.925c-0.905,0-1.482-0.345-1.482-0.582s0.577-0.582,1.482-0.582s1.482,0.345,1.482,0.582
			S27.388,59.925,26.483,59.925z"/>
		<path fill="#1D1D1B" d="M73.104,36.165c-1.13,0-1.982,0.466-1.982,1.083s0.853,1.082,1.982,1.082c1.129,0,1.98-0.465,1.98-1.082
			S74.232,36.165,73.104,36.165z M73.104,37.83c-0.905,0-1.482-0.345-1.482-0.582s0.577-0.583,1.482-0.583
			c0.903,0,1.48,0.346,1.48,0.583S74.007,37.83,73.104,37.83z"/>
		<path fill="#1D1D1B" d="M7.233,49.146c-1.13,0-1.982,0.465-1.982,1.082c0,0.618,0.852,1.084,1.982,1.084
			c1.13,0,1.982-0.466,1.982-1.084C9.215,49.611,8.363,49.146,7.233,49.146z M7.233,50.812c-0.905,0-1.482-0.346-1.482-0.584
			c0-0.237,0.578-0.582,1.482-0.582s1.482,0.345,1.482,0.582C8.715,50.467,8.138,50.812,7.233,50.812z"/>
		<path fill="#1D1D1B" d="M46.369,46.75c-0.511,0-0.881,0.232-0.881,0.554s0.371,0.554,0.881,0.554s0.881-0.232,0.881-0.554
			S46.88,46.75,46.369,46.75z M46.054,47.304c0.133-0.055,0.498-0.055,0.631,0C46.552,47.358,46.185,47.358,46.054,47.304z"/>
		<path fill="#1D1D1B" d="M44.369,47.75c-0.511,0-0.882,0.232-0.882,0.554c0,0.319,0.371,0.552,0.882,0.552
			c0.51,0,0.881-0.232,0.881-0.552C45.25,47.982,44.879,47.75,44.369,47.75z M44.056,48.303c0.133-0.053,0.493-0.053,0.625,0
			C44.548,48.355,44.188,48.355,44.056,48.303z"/>
		<path fill="#1D1D1B" d="M48.367,45.75c-0.511,0-0.881,0.232-0.881,0.554s0.37,0.554,0.881,0.554c0.512,0,0.883-0.232,0.883-0.554
			S48.879,45.75,48.367,45.75z M48.053,46.304c0.134-0.055,0.497-0.055,0.63,0C48.55,46.358,48.187,46.358,48.053,46.304z"/>
		<path fill="#1D1D1B" d="M50.369,44.75c-0.511,0-0.881,0.232-0.881,0.554c0,0.32,0.37,0.553,0.881,0.553s0.881-0.232,0.881-0.553
			C51.25,44.982,50.88,44.75,50.369,44.75z M50.056,45.304c0.133-0.055,0.495-0.055,0.628,0
			C50.551,45.356,50.188,45.356,50.056,45.304z"/>
		<path fill="#1D1D1B" d="M69.01,31.142v-12.91c0-3.494-5.221-6.231-11.885-6.231c-6.666,0-11.888,2.737-11.888,6.231v9.463
			l-10.606,5.087c-1.401-2.628-5.881-4.456-11.43-4.456c-6.665,0-11.886,2.736-11.886,6.23v9.404L0,49.385v4.479l26.453,12.716
			L80,40.903v-4.479L69.01,31.142z M57.036,13.25c0.727,0,1.437,0.035,2.123,0.102c4.796,0.465,8.416,2.474,8.423,4.887
			c-0.009,2.743-4.735,4.973-10.546,4.973c-5.816,0-10.549-2.233-10.549-4.979C46.487,15.484,51.22,13.25,57.036,13.25z
			 M46.487,19.862c1.403,2.228,5.601,3.849,10.549,3.849c4.946,0,9.144-1.621,10.547-3.849v15.456c0,2.746-4.731,4.979-10.548,4.979
			s-10.549-2.233-10.548-4.995V19.862z M43.244,35.802l-6.731,3.259c-0.416,0.205-0.997,0.322-1.595,0.322
			c-0.304,0-0.578-0.038-0.833-0.09v-1.742l5.89-2.847c0.419-0.243,1.039-0.383,1.701-0.383c1.219,0,2.13,0.472,2.13,0.894
			C43.805,35.417,43.601,35.631,43.244,35.802z M43.805,36.048v1.949c0,0.198-0.209,0.416-0.561,0.584l-6.506,3.154l-0.002-0.003
			l-0.223,0.11c-0.414,0.204-0.995,0.321-1.595,0.321c-0.308,0-0.58-0.037-0.833-0.087l0-2.274c0.261,0.046,0.534,0.08,0.833,0.08
			c0.681,0,1.327-0.133,1.815-0.373l6.728-3.258C43.59,36.19,43.704,36.121,43.805,36.048z M23.075,29.575
			c0.725,0,1.432,0.035,2.116,0.102c4.785,0.465,8.395,2.478,8.393,4.895v0.003c-0.021,2.737-4.727,4.961-10.509,4.961
			c-5.795,0-10.509-2.233-10.509-4.979S17.28,29.575,23.075,29.575z M12.565,36.221c1.385,2.233,5.507,3.814,10.509,3.814
			c5.001,0,9.122-1.58,10.509-3.812v15.422c0,2.744-4.714,4.977-10.509,4.977s-10.51-2.232-10.509-4.991V36.221z M26.203,64.24
			L2,52.605v-1.832l24.203,11.635V64.24z M2.444,50.432l9.621-4.612l0,5.825c0,3.071,4.836,5.477,11.01,5.477
			c6.173,0,11.009-2.405,11.009-5.477l0.001-9.057c0.262,0.045,0.537,0.076,0.833,0.076c0.582,0,1.136-0.096,1.588-0.273
			l0.005,0.011l6.949-3.37c0.545-0.259,0.845-0.626,0.845-1.034v-2.782c0-0.795-1.13-1.394-2.63-1.394
			c-0.747,0-1.458,0.164-1.935,0.441l-5.655,2.731l0-1.741l11.901-5.699l0,5.765c0,3.072,4.854,5.479,11.049,5.479
			s11.048-2.407,11.048-5.479v-2.403l9.474,4.555L26.453,61.974L2.444,50.432z M78,39.644L26.703,64.24v-1.832L78,37.811V39.644z"/>
	</g>
</g>
</svg>
