<?xml version="1.0" encoding="utf-8"?>
<!-- Generator: Adobe Illustrator 16.0.4, SVG Export Plug-In . SVG Version: 6.00 Build 0)  -->
<!DOCTYPE svg PUBLIC "-//W3C//DTD SVG 1.1//EN" "http://www.w3.org/Graphics/SVG/1.1/DTD/svg11.dtd">
<svg version="1.1" xmlns="http://www.w3.org/2000/svg" xmlns:xlink="http://www.w3.org/1999/xlink" x="0px" y="0px" width="80px"
	 height="80px" viewBox="0 0 80 80" enable-background="new 0 0 80 80" xml:space="preserve">
<g id="BGs">
</g>
<g id="thin_Lines">
	<g>
		<path fill="#1D1D1B" d="M40.519,28.891L24,36.813v6.227l16.519,7.922L57,43.039v-6.225L40.519,28.891z M55,39.36l-3.899,1.597
			v-4.76L55,38.072V39.36z M50.601,35.957v3.8L40.5,44.608l-14.055-6.749l14.072-6.75L50.601,35.957z M26,38.201l14.25,6.842v3.572
			L26,41.78V38.201z M40.75,48.631v-3.588l9.851-4.731v1.392L55,39.9v1.881L40.75,48.631z"/>
		<path fill="#1D1D1B" d="M40.417,40.466c3.037,0,5.416-1.2,5.416-2.732c0-1.533-2.379-2.733-5.416-2.733S35,36.2,35,37.733
			C35,39.266,37.38,40.466,40.417,40.466z M40.417,35.5c2.665,0,4.916,1.022,4.916,2.233c0,1.21-2.251,2.232-4.916,2.232
			S35.5,38.943,35.5,37.733C35.5,36.522,37.752,35.5,40.417,35.5z"/>
	</g>
</g>
</svg>
