<?xml version="1.0" encoding="utf-8"?>
<!-- Generator: Adobe Illustrator 16.0.4, SVG Export Plug-In . SVG Version: 6.00 Build 0)  -->
<!DOCTYPE svg PUBLIC "-//W3C//DTD SVG 1.1//EN" "http://www.w3.org/Graphics/SVG/1.1/DTD/svg11.dtd">
<svg version="1.1" id="Ebene_1" xmlns="http://www.w3.org/2000/svg" xmlns:xlink="http://www.w3.org/1999/xlink" x="0px" y="0px"
	 width="80px" height="80px" viewBox="0 0 80 80" enable-background="new 0 0 80 80" xml:space="preserve">
<g id="BGs">
</g>
<g id="thin_Lines">
	<g>
		<path fill="#FFFFFF" d="M62.049,26.705c0-0.953-1.434-1.699-3.264-1.699c-1.831,0-3.266,0.746-3.266,1.699
			c0,0.952,1.435,1.697,3.266,1.697C60.615,28.402,62.049,27.657,62.049,26.705z M56.021,26.705c0-0.567,1.136-1.199,2.765-1.199
			s2.764,0.632,2.764,1.199c0,0.566-1.135,1.197-2.764,1.197S56.021,27.271,56.021,26.705z"/>
		<path fill="#FFFFFF" d="M39.552,34.402c-1.831,0-3.265,0.746-3.265,1.699c0,0.952,1.434,1.698,3.265,1.698
			c1.831,0,3.265-0.746,3.265-1.698C42.816,35.148,41.383,34.402,39.552,34.402z M39.552,37.3c-1.629,0-2.765-0.632-2.765-1.198
			c0-0.567,1.136-1.199,2.765-1.199c1.63,0,2.765,0.632,2.765,1.199C42.316,36.668,41.182,37.3,39.552,37.3z"/>
		<path fill="#FFFFFF" d="M19.45,43.915c-1.832,0-3.267,0.746-3.267,1.698c0,0.951,1.435,1.697,3.267,1.697
			c1.83,0,3.264-0.746,3.264-1.697C22.714,44.661,21.28,43.915,19.45,43.915z M19.45,46.811c-1.631,0-2.767-0.631-2.767-1.196
			c0-0.566,1.136-1.198,2.767-1.198c1.629,0,2.764,0.632,2.764,1.198C22.214,46.18,21.079,46.811,19.45,46.811z"/>
		<path fill="#FFFFFF" d="M34.707,43.165c-0.433,0-0.829,0.093-1.098,0.252l-3.576,1.726c-0.345,0.162-0.535,0.4-0.535,0.67
			c0,0.498,0.663,0.873,1.542,0.873c0.388,0,0.756-0.076,1.036-0.216l3.649-1.77c0.339-0.16,0.525-0.396,0.525-0.664
			C36.251,43.539,35.587,43.165,34.707,43.165z M35.51,44.25l-3.655,1.771c-0.209,0.104-0.506,0.162-0.814,0.162
			c-0.646,0-1.042-0.24-1.042-0.371c0-0.041,0.066-0.133,0.251-0.221l3.596-1.734c0.208-0.123,0.522-0.192,0.862-0.192
			c0.688,0,1.044,0.26,1.044,0.371C35.751,44.084,35.677,44.171,35.51,44.25z"/>
		<path fill="#FFFFFF" d="M32.496,43.139c0.336-0.16,0.521-0.396,0.521-0.664c0-0.496-0.663-0.871-1.542-0.871
			c-0.429,0-0.825,0.092-1.099,0.25l-3.575,1.728c-0.467,0.22-0.536,0.515-0.536,0.672c0,0.008,0.004,0.017,0.004,0.022
			l-1.607-0.771c0.297-0.023,0.58-0.081,0.802-0.189l3.652-1.77c0.337-0.162,0.522-0.398,0.522-0.665
			c0-0.497-0.663-0.872-1.542-0.872c-0.428,0-0.824,0.092-1.101,0.252l-3.572,1.727c-0.345,0.158-0.535,0.396-0.538,0.664
			l-3.435-1.649l-9.303,4.461v3.212l9.303,4.462l9.282-4.462V45.46l-0.739-0.354c0.315-0.021,0.615-0.082,0.849-0.195L32.496,43.139
			z M23.637,42.438l3.592-1.736c0.215-0.123,0.531-0.193,0.868-0.193c0.636,0,1.042,0.244,1.042,0.372
			c0,0.048-0.075,0.136-0.24,0.215l-3.655,1.771c-0.21,0.104-0.508,0.161-0.816,0.161c-0.636,0-1.042-0.243-1.042-0.37
			C23.385,42.605,23.462,42.518,23.637,42.438z M19.191,52.454l-8.543-4.097v-2.344l8.543,4.103V52.454z M19.441,49.682
			l-8.465-4.063l8.475-4.063l5.777,2.776v2.571L19.441,49.682z M28.233,48.357l-8.542,4.105v-2.348l5.537-2.659v0.802l3.005-1.232
			V48.357z M28.233,45.773v0.711l-2.505,1.027V44.57L28.233,45.773z M27.809,44.623c-0.688,0-1.043-0.26-1.043-0.371
			c0-0.049,0.078-0.139,0.251-0.22l3.594-1.736c0.212-0.122,0.527-0.192,0.865-0.192c0.646,0,1.042,0.24,1.042,0.371
			c0,0.049-0.074,0.135-0.239,0.215l-3.655,1.771C28.413,44.562,28.116,44.623,27.809,44.623z"/>
		<path fill="#FFFFFF" d="M54.874,33.585c-0.431,0-0.827,0.092-1.101,0.249l-3.572,1.726c-0.469,0.218-0.537,0.515-0.537,0.673
			c0,0.497,0.662,0.871,1.541,0.871c0.314,0,0.615-0.05,0.868-0.144l0.008,0.008l3.813-1.849c0.453-0.22,0.521-0.511,0.521-0.665
			C56.416,33.959,55.753,33.585,54.874,33.585z M55.677,34.67l-3.493,1.692l-0.002-0.002l-0.162,0.08
			c-0.209,0.104-0.506,0.163-0.813,0.163c-0.636,0-1.041-0.244-1.041-0.371c0-0.05,0.078-0.141,0.251-0.221l3.591-1.735
			c0.214-0.122,0.528-0.191,0.868-0.191c0.688,0,1.042,0.259,1.042,0.369C55.916,34.504,55.842,34.59,55.677,34.67z"/>
		<path fill="#FFFFFF" d="M52.662,33.559c0.337-0.162,0.521-0.398,0.521-0.666c0-0.495-0.662-0.869-1.543-0.869
			c-0.432,0-0.828,0.091-1.101,0.249L46.969,34c-0.348,0.16-0.539,0.398-0.539,0.67c0,0.046,0.012,0.09,0.022,0.134l-1.798-0.863
			c0.361-0.009,0.705-0.078,0.974-0.208l3.651-1.769c0.337-0.161,0.521-0.398,0.521-0.667c0-0.497-0.662-0.871-1.541-0.871
			c-0.432,0-0.828,0.094-1.099,0.253l-3.573,1.725c-0.347,0.16-0.538,0.397-0.538,0.67c0,0.035,0.011,0.069,0.019,0.104
			l-3.519-1.691l-9.302,4.464v3.213l9.302,4.461l9.283-4.461v-3.213l-0.851-0.408c0.381-0.002,0.744-0.077,1.023-0.213
			L52.662,33.559z M43.803,32.855l3.596-1.736c0.209-0.124,0.524-0.194,0.863-0.194c0.637,0,1.041,0.244,1.041,0.371
			c0,0.049-0.074,0.138-0.238,0.217l-3.654,1.769c-0.213,0.104-0.51,0.164-0.816,0.164c-0.646,0-1.041-0.241-1.041-0.373
			C43.552,33.031,43.617,32.94,43.803,32.855z M39.292,42.941l-8.542-4.095v-2.344l8.542,4.102V42.941z M39.542,40.17l-8.464-4.064
			l8.474-4.066l5.778,2.778v2.574L39.542,40.17z M48.335,38.847l-8.543,4.105v-2.349l5.538-2.658v0.802l3.005-1.232V38.847z
			 M48.335,36.263v0.712l-2.505,1.027v-2.943L48.335,36.263z M47.975,35.041c-0.688,0-1.043-0.261-1.043-0.372
			c0-0.041,0.065-0.132,0.252-0.219l3.59-1.736c0.211-0.121,0.527-0.19,0.869-0.19c0.637,0,1.043,0.242,1.043,0.369
			c0,0.049-0.076,0.137-0.24,0.216l-3.655,1.769C48.577,34.981,48.279,35.041,47.975,35.041z"/>
		<path fill="#FFFFFF" d="M60.514,19.513L0.113,48.445v2.666l17.586,8.451l60.414-29.04v-2.67L60.514,19.513z M72.337,26.507
			l-0.567,0.276v-0.005l-0.359,0.178c-0.211,0.104-0.508,0.164-0.814,0.164c-0.637,0-1.043-0.244-1.043-0.371
			c0-0.05,0.078-0.14,0.252-0.22l1.277-0.617L72.337,26.507z M69.072,24.961l-0.896,0.434c-0.212,0.104-0.509,0.164-0.816,0.164
			c-0.635,0-1.041-0.244-1.041-0.371c0-0.049,0.078-0.138,0.252-0.22l1.246-0.602L69.072,24.961z M50.311,26.708l8.477-4.064
			l5.779,2.778v2.572l-5.791,2.779L50.311,26.708z M58.525,31.208v2.338l-8.543-4.096v-2.345L58.525,31.208z M59.025,31.208
			l5.541-2.659v0.802l3.002-1.231v1.331l-8.543,4.105V31.208z M65.066,28.604v-2.942l2.502,1.203v0.713L65.066,28.604z
			 M67.257,24.08l-0.901,0.436c-0.347,0.164-0.537,0.402-0.537,0.672c0,0.12,0.041,0.233,0.113,0.336l-2.238-1.076
			c0.094,0.01,0.188,0.016,0.289,0.016c0.386,0,0.752-0.076,1.033-0.215l1.284-0.621L67.257,24.08z M65.699,23.361l-0.904,0.438
			c-0.211,0.104-0.507,0.164-0.812,0.164c-0.637,0-1.043-0.244-1.043-0.372c0-0.05,0.078-0.14,0.252-0.22l1.252-0.604L65.699,23.361
			z M6.045,50.984l1.206-0.582c0.207-0.123,0.521-0.193,0.861-0.193c0.646,0,1.042,0.24,1.042,0.371c0,0.05-0.074,0.137-0.239,0.215
			l-1.63,0.79L6.045,50.984z M9.378,52.604l1.252-0.604c0.208-0.122,0.521-0.192,0.862-0.192c0.647,0,1.044,0.24,1.044,0.371
			c0,0.049-0.074,0.137-0.241,0.215l-1.679,0.812L9.378,52.604z M12.602,54.168l1.257-0.607c0.214-0.123,0.529-0.193,0.867-0.193
			c0.636,0,1.042,0.244,1.042,0.372c0,0.048-0.074,0.136-0.239,0.215l-1.687,0.815L12.602,54.168z M17.698,56.77l-3.431-1.649
			l1.479-0.716c0.336-0.162,0.521-0.398,0.521-0.665c0-0.497-0.663-0.872-1.542-0.872c-0.429,0-0.826,0.093-1.101,0.253
			l-1.755,0.848l-0.844-0.405l1.484-0.719c0.339-0.158,0.525-0.396,0.525-0.666c0-0.496-0.664-0.871-1.544-0.871
			c-0.434,0-0.83,0.094-1.098,0.252l-1.766,0.853l-0.954-0.458l1.456-0.705c0.333-0.156,0.523-0.398,0.523-0.666
			c0-0.497-0.663-0.871-1.542-0.871c-0.428,0-0.835,0.096-1.098,0.253l-1.735,0.837L1.69,49.074l58.826-28.188l3.366,1.596
			l-0.905,0.438c-0.348,0.161-0.537,0.399-0.537,0.672c0,0.106,0.035,0.206,0.093,0.299l-3.746-1.801l-9.304,4.462v3.214
			l9.304,4.461l9.282-4.461v-3.214l-1.077-0.518c0.118,0.016,0.239,0.025,0.368,0.025c0.387,0,0.754-0.076,1.037-0.214l1.275-0.619
			l0.848,0.401l-0.932,0.45c-0.347,0.161-0.537,0.399-0.537,0.672c0,0.497,0.663,0.871,1.542,0.871c0.237,0,0.468-0.029,0.677-0.083
			v0.045l1.666-0.811l3.597,1.704L17.698,56.77z"/>
	</g>
</g>
</svg>
