<?xml version="1.0" encoding="utf-8"?>
<!-- Generator: Adobe Illustrator 16.0.4, SVG Export Plug-In . SVG Version: 6.00 Build 0)  -->
<!DOCTYPE svg PUBLIC "-//W3C//DTD SVG 1.1//EN" "http://www.w3.org/Graphics/SVG/1.1/DTD/svg11.dtd">
<svg version="1.1" xmlns="http://www.w3.org/2000/svg" xmlns:xlink="http://www.w3.org/1999/xlink" x="0px" y="0px" width="80px"
	 height="80px" viewBox="0 0 80 80" enable-background="new 0 0 80 80" xml:space="preserve">
<g id="BGs">
</g>
<g id="thin_Lines">
	<g>
		<path fill="#1D1D1B" d="M23.336,51.284c0.938,0,1.949-0.277,1.949-0.887c0-0.607-1.011-0.884-1.949-0.884
			s-1.948,0.276-1.948,0.884C21.388,51.007,22.397,51.284,23.336,51.284z M23.336,50.014c0.905,0,1.427,0.27,1.449,0.383
			c-0.02,0.116-0.537,0.388-1.449,0.388s-1.429-0.271-1.448-0.386C21.91,50.283,22.431,50.014,23.336,50.014z"/>
		<path fill="#1D1D1B" d="M53.529,54.876c0.938,0,1.949-0.277,1.949-0.886c0-0.607-1.011-0.884-1.949-0.884
			s-1.949,0.276-1.949,0.884C51.58,54.599,52.591,54.876,53.529,54.876z M53.529,53.606c0.909,0,1.428,0.27,1.449,0.383
			c-0.021,0.115-0.54,0.387-1.449,0.387c-0.907,0-1.427-0.271-1.449-0.385C52.103,53.876,52.623,53.606,53.529,53.606z"/>
		<path fill="#1D1D1B" d="M42.238,60.328c0.938,0,1.948-0.277,1.948-0.885c0-0.606-1.01-0.883-1.948-0.883
			c-0.939,0-1.95,0.276-1.95,0.883C40.288,60.051,41.299,60.328,42.238,60.328z M42.238,59.061c0.904,0,1.425,0.27,1.448,0.382
			c-0.021,0.115-0.54,0.386-1.448,0.386s-1.429-0.271-1.45-0.384C40.812,59.33,41.333,59.061,42.238,59.061z"/>
		<path fill="#1D1D1B" d="M49,45.396V4.892c0-2.799-5.572-4.891-10.555-4.891C33.401,0.001,28,1.846,28,4.593v37.805l-14,7.406
			v17.146l27.662,13.158L63,69.919V52.773L49,45.396z M38.487,55.675c-5.58,0-10.12-2.247-10.12-5.01
			c0-0.771,0.363-1.498,0.993-2.151v2.151c0,2.511,4.009,4.478,9.127,4.478c5.119,0,9.129-1.967,9.129-4.478v-2.15
			c0.629,0.653,0.992,1.38,0.992,2.15C48.608,53.428,44.068,55.675,38.487,55.675z M48.566,52.392
			c-0.424,2.57-4.778,4.599-10.079,4.599c-5.3,0-9.654-2.028-10.078-4.599c1.4,2.194,5.386,3.783,10.078,3.783
			C43.181,56.175,47.166,54.586,48.566,52.392z M38.44,25.792c4.162,0,7.567-1.044,8.676-2.512l-0.05,27.385
			c0,2.193-3.849,3.978-8.579,3.978s-8.578-1.784-8.578-3.978L29.86,23.409C31.066,24.809,34.399,25.792,38.44,25.792z
			 M30.601,23.437V6.105c0.216,0.145,0.454,0.283,0.72,0.413v17.388C31.042,23.756,30.803,23.599,30.601,23.437z M31.82,24.149
			V6.742c0.442,0.184,0.931,0.349,1.466,0.49l-0.002,17.43C32.737,24.511,32.247,24.339,31.82,24.149z M33.784,24.79l0.002-17.438
			c0.461,0.105,0.949,0.195,1.461,0.269v17.446C34.728,24.991,34.239,24.898,33.784,24.79z M35.747,25.138V7.689
			c0.47,0.055,0.96,0.093,1.462,0.118v17.449C36.702,25.231,36.211,25.193,35.747,25.138z M37.709,25.278V7.829
			c0.242,0.007,0.484,0.014,0.731,0.014s0.488-0.007,0.729-0.014v17.449c-0.24,0.007-0.481,0.014-0.729,0.014
			C38.191,25.292,37.95,25.285,37.709,25.278z M39.67,25.257V7.809c0.502-0.026,0.992-0.063,1.462-0.119v17.448
			C40.667,25.193,40.177,25.231,39.67,25.257z M41.632,25.067V7.621c0.512-0.073,1-0.163,1.462-0.269l0.001,17.438
			C42.64,24.898,42.151,24.991,41.632,25.067z M43.594,7.232c0.534-0.142,1.021-0.307,1.462-0.488V24.15
			c-0.426,0.188-0.915,0.361-1.461,0.512L43.594,7.232z M45.556,23.907V6.521c0.266-0.131,0.505-0.27,0.722-0.415v17.331
			C46.075,23.599,45.835,23.757,45.556,23.907z M46.777,22.915V5.722c0.09-0.081,0.166-0.166,0.24-0.251v16.774
			C47.018,22.468,46.93,22.693,46.777,22.915z M38.44,1.25c5.131,0,8.577,1.576,8.577,3.049c0,1.47-3.446,3.044-8.577,3.044
			c-1.585,0-3.008-0.15-4.219-0.401l2.822-1.577L36.8,4.929l-3.302,1.845c-2.279-0.59-3.638-1.553-3.638-2.475
			C29.86,2.826,33.308,1.25,38.44,1.25z M29.86,5.471c0.074,0.085,0.15,0.169,0.24,0.251v17.193c-0.152-0.222-0.24-0.447-0.24-0.67
			V5.471z M29.36,43.94v3.92c-0.942,0.823-1.493,1.78-1.493,2.805v1.316c0,3.037,4.765,5.509,10.62,5.509
			c5.856,0,10.621-2.472,10.621-5.509v-1.316c0-1.024-0.551-1.98-1.492-2.804v-0.933l12.97,6.834l-18.954,9.041L16.41,50.792
			L29.36,43.94z M16,51.15l25.382,12.088V77.76L16,65.686V51.15z M41.882,77.787V63.239L61,54.119v14.538L41.882,77.787z"/>
	</g>
</g>
</svg>
