<?xml version="1.0" encoding="utf-8"?>
<!-- Generator: Adobe Illustrator 16.0.4, SVG Export Plug-In . SVG Version: 6.00 Build 0)  -->
<!DOCTYPE svg PUBLIC "-//W3C//DTD SVG 1.1//EN" "http://www.w3.org/Graphics/SVG/1.1/DTD/svg11.dtd">
<svg version="1.1" xmlns="http://www.w3.org/2000/svg" xmlns:xlink="http://www.w3.org/1999/xlink" x="0px" y="0px" width="80px"
	 height="80px" viewBox="0 0 80 80" enable-background="new 0 0 80 80" xml:space="preserve">
<g id="BGs">
</g>
<g id="thin_Lines">
	<g>
		<path fill="#1D1D1B" d="M71.333,20.441c1.429-0.585,2.31-1.544,2.31-2.688v-2.429c0-1.882-2.485-3.301-5.719-3.301
			c-0.002,0-0.005,0-0.007,0l-19.23-1.254l-0.065-0.004l-19.204,1.256c-3.303,0-5.793,1.42-5.793,3.303v2.429
			c0,1.881,2.486,3.3,5.722,3.3c0.003,0,0.005,0,0.008,0l4.263,0.273l-19.504,9.376l-5.12,7.625l0.104,23.764l20.256,9.869
			l44.609-21.346V21.581L71.333,20.441z M43.895,21.233l4.727,0.303l4.356-0.279v3.269c0,1.112-2.079,2.052-4.541,2.052
			s-4.542-0.94-4.542-2.058V21.233z M48.621,21.035l-19.204-1.229c-2.463,0-4.543-0.939-4.543-2.052v-1.323
			c0.802,0.859,2.501,1.445,4.525,1.445c0,0,0.001,0,0.002,0l19.22,1.23l19.23-1.23c2.036,0,3.739-0.586,4.541-1.446v1.323
			c0,1.112-2.079,2.052-4.557,2.052L48.621,21.035z M72.393,15.324c0,1.112-2.079,2.052-4.557,2.052l-19.215,1.229l-19.204-1.229
			c-2.463,0-4.543-0.939-4.543-2.052c0-1.113,2.08-2.053,4.56-2.054l19.171-1.254l19.247,1.254
			C70.313,13.271,72.393,14.211,72.393,15.324z M39.07,20.924l4.324,0.277v3.324c0,1.431,2.215,2.552,5.042,2.552
			s5.041-1.121,5.041-2.552l0.001-3.301l12.752-0.815l4.982,2.16L33.997,40.45l-17.765-8.548L39.07,20.924z M29.303,47.438
			l-18.158-8.728l4.325-6.441l0.187-0.089l17.976,8.65L29.303,47.438z M10.995,39.192l18.146,8.723l-0.034,21.701L11.09,60.837
			L10.995,39.192z M71.961,49.354L29.607,69.621l0.034-21.789l4.526-6.909L71.82,22.833l0.141,0.061V49.354z"/>
		<path fill="#1D1D1B" d="M48.621,13.947c-1.465,0-2.57,0.587-2.57,1.365s1.105,1.364,2.57,1.364s2.569-0.586,2.569-1.364
			S50.086,13.947,48.621,13.947z M48.621,16.176c-1.185,0-2.07-0.456-2.07-0.864s0.886-0.865,2.07-0.865s2.069,0.457,2.069,0.865
			S49.806,16.176,48.621,16.176z"/>
		<path fill="#1D1D1B" d="M29.417,14.213c-1.164,0-2.042,0.478-2.042,1.111c0,0.633,0.878,1.11,2.042,1.11
			c1.162,0,2.039-0.477,2.039-1.11C31.456,14.69,30.579,14.213,29.417,14.213z M29.417,15.934c-0.941,0-1.542-0.361-1.542-0.61
			c0-0.249,0.601-0.611,1.542-0.611c0.939,0,1.539,0.362,1.539,0.611C30.956,15.572,30.356,15.934,29.417,15.934z"/>
		<path fill="#1D1D1B" d="M35.817,14.601c-0.715,0-1.233,0.304-1.233,0.723c0,0.418,0.519,0.722,1.233,0.722
			s1.233-0.304,1.233-0.722C37.051,14.905,36.532,14.601,35.817,14.601z M35.817,15.545c-0.46,0-0.715-0.164-0.733-0.218
			c0.018-0.062,0.271-0.227,0.733-0.227c0.461,0,0.715,0.164,0.734,0.218C36.532,15.382,36.277,15.545,35.817,15.545z"/>
		<path fill="#1D1D1B" d="M42.22,14.601c-0.715,0-1.233,0.304-1.233,0.723c0,0.418,0.519,0.722,1.233,0.722
			c0.714,0,1.232-0.304,1.232-0.722C43.452,14.905,42.934,14.601,42.22,14.601z M42.22,15.545c-0.46,0-0.715-0.164-0.733-0.218
			c0.018-0.062,0.271-0.227,0.733-0.227c0.461,0,0.715,0.164,0.732,0.218C42.934,15.382,42.68,15.545,42.22,15.545z"/>
		<path fill="#1D1D1B" d="M67.826,14.213c-1.163,0-2.041,0.478-2.041,1.111c0,0.633,0.878,1.11,2.041,1.11
			c1.164,0,2.042-0.477,2.042-1.11C69.868,14.69,68.99,14.213,67.826,14.213z M67.826,15.934c-0.94,0-1.541-0.361-1.541-0.61
			c0-0.249,0.601-0.611,1.541-0.611c0.941,0,1.542,0.362,1.542,0.611C69.368,15.572,68.768,15.934,67.826,15.934z"/>
		<path fill="#1D1D1B" d="M61.424,14.601c-0.714,0-1.231,0.304-1.231,0.723c0,0.418,0.518,0.722,1.231,0.722
			c0.715,0,1.233-0.304,1.233-0.722C62.657,14.905,62.139,14.601,61.424,14.601z M61.424,15.545c-0.46,0-0.713-0.164-0.731-0.218
			c0.018-0.062,0.271-0.226,0.731-0.226c0.462,0,0.716,0.164,0.733,0.219C62.139,15.382,61.885,15.545,61.424,15.545z"/>
		<path fill="#1D1D1B" d="M55.023,14.601c-0.715,0-1.233,0.304-1.233,0.723c0,0.418,0.519,0.722,1.233,0.722
			s1.233-0.304,1.233-0.722C56.257,14.905,55.738,14.601,55.023,14.601z M55.023,15.545c-0.46,0-0.715-0.164-0.733-0.218
			c0.019-0.062,0.272-0.227,0.733-0.227c0.462,0,0.716,0.164,0.733,0.218C55.738,15.382,55.483,15.545,55.023,15.545z"/>
	</g>
</g>
</svg>
