<?xml version="1.0" encoding="utf-8"?>
<!-- Generator: Adobe Illustrator 16.0.4, SVG Export Plug-In . SVG Version: 6.00 Build 0)  -->
<!DOCTYPE svg PUBLIC "-//W3C//DTD SVG 1.1//EN" "http://www.w3.org/Graphics/SVG/1.1/DTD/svg11.dtd">
<svg version="1.1" xmlns="http://www.w3.org/2000/svg" xmlns:xlink="http://www.w3.org/1999/xlink" x="0px" y="0px" width="80px"
	 height="80px" viewBox="0 0 80 80" enable-background="new 0 0 80 80" xml:space="preserve">
<g id="BGs">
</g>
<g id="thin_Lines">
	<path d="M67.887,14.003L33.397,30.562v-2.608l-0.626-0.3v-7.214l-3.713-1.783l-5.349,2.546v7.848l-0.435,0.227v6.147L0,46.598
		v8.485l12.113,5.822L80,28.312v-8.485L67.887,14.003z M32.647,35.95l35.091-16.874l3.099,1.507L34.413,38.102l-1.766-0.841V35.95z
		 M32.647,37.826l1.165,0.563l-1.165,0.561V37.826z M32.147,28.981v9.864l-5.169,2.484l-0.229-0.109v-9.877l0.958-0.394
		l-0.121-7.592l3.935-1.892v7.816L32.147,28.981z M23.071,40.555l0.954-0.459v0.37l2.736,1.315l-0.68,0.327L23.071,40.555z
		 M25.519,42.379l-3.004,1.444v-2.995L25.519,42.379z M29.057,20.042l2.138,1.026l-3.855,1.855l-2.068-1.079L29.057,20.042z
		 M24.96,22.246l2.126,1.109l0.115,7.201l-2.241-1.059V22.246z M24.525,30.279l1.725,0.825v9.876l-1.725-0.829V30.279z
		 M24.025,37.282v2.26L8.31,47.099l-0.468,0.226l4.271,2.057L71.52,20.81l0.466-0.225l-4.245-2.063L32.647,35.396v-2.255
		l35.239-16.919l9.67,4.649L12.113,52.292l-9.67-4.649L24.025,37.282z M22.015,41.062v3.002l-9.901,4.762l-3.119-1.502
		L22.015,41.062z M12.25,58.621l-0.137,0.065L2,53.825v-5.841l10.005,4.811l0.108,0.052l0.137-0.065V58.621z M78,27.054
		L12.75,58.381v-5.812h-0.059L78,21.213V27.054z"/>
</g>
</svg>
