<?xml version="1.0" encoding="utf-8"?>
<!-- Generator: Adobe Illustrator 16.0.4, SVG Export Plug-In . SVG Version: 6.00 Build 0)  -->
<!DOCTYPE svg PUBLIC "-//W3C//DTD SVG 1.1//EN" "http://www.w3.org/Graphics/SVG/1.1/DTD/svg11.dtd">
<svg version="1.1" xmlns="http://www.w3.org/2000/svg" xmlns:xlink="http://www.w3.org/1999/xlink" x="0px" y="0px" width="80px"
	 height="80px" viewBox="0 0 80 80" enable-background="new 0 0 80 80" xml:space="preserve">
<g id="BGs">
</g>
<g id="thin_Lines">
	<path fill="#1D1D1B" d="M11.535,19.793c-0.707,0.31-0.883,1.416-0.401,2.517c0.389,0.894,1.086,1.494,1.735,1.494
		c0.135,0,0.264-0.027,0.384-0.079c0.249-0.108,0.44-0.32,0.554-0.612c0.202-0.516,0.145-1.228-0.152-1.905
		C13.185,20.129,12.233,19.49,11.535,19.793z M13.342,22.932c-0.066,0.168-0.163,0.281-0.289,0.336
		c-0.376,0.165-1.06-0.236-1.461-1.157c-0.389-0.888-0.236-1.693,0.143-1.859c0.057-0.025,0.119-0.037,0.185-0.037
		c0.376,0,0.936,0.41,1.278,1.195C13.439,21.959,13.494,22.543,13.342,22.932z"/>
	<path fill="#1D1D1B" d="M38.729,33.335c-0.36,0.157-0.592,0.521-0.655,1.026c-0.057,0.458,0.033,0.987,0.253,1.49
		c0.389,0.894,1.086,1.495,1.735,1.495c0.135,0,0.264-0.026,0.384-0.079c0.707-0.31,0.883-1.415,0.402-2.517
		C40.377,33.67,39.425,33.034,38.729,33.335z M40.246,36.809c-0.377,0.164-1.06-0.236-1.461-1.158
		c-0.185-0.423-0.262-0.859-0.215-1.228c0.023-0.187,0.101-0.517,0.359-0.63c0.056-0.024,0.119-0.037,0.185-0.037
		c0.375,0,0.935,0.41,1.277,1.194C40.741,35.753,40.673,36.622,40.246,36.809z"/>
	<path fill="#1D1D1B" d="M38.699,67.863c-0.36,0.157-0.592,0.521-0.655,1.026c-0.057,0.457,0.033,0.986,0.253,1.489
		c0.389,0.895,1.085,1.495,1.734,1.495c0.136,0,0.266-0.026,0.385-0.079c0.248-0.107,0.439-0.318,0.553-0.609
		c0.203-0.515,0.146-1.228-0.151-1.905C40.347,68.198,39.39,67.564,38.699,67.863z M40.504,71.003
		c-0.065,0.167-0.162,0.279-0.288,0.334c-0.377,0.162-1.06-0.234-1.461-1.158c-0.185-0.422-0.262-0.858-0.215-1.228
		c0.023-0.187,0.101-0.517,0.359-0.63c0.057-0.024,0.119-0.037,0.185-0.037c0.375,0,0.934,0.411,1.277,1.196
		C40.602,70.031,40.657,70.614,40.504,71.003z"/>
	<path fill="#1D1D1B" d="M74.81,12.872L47.876-0.103L12.65,15.686l-5.51,4.553L7.115,50.951l-5.643,2.528
		c-0.559,0.244-0.985,0.708-1.233,1.341c-0.393,1.003-0.295,2.359,0.26,3.629c0.916,2.096,2.818,3.31,4.314,2.657l5.03-2.256
		l2.458,4.431l26.935,12.974l35.227-15.787l5.51-4.371L80,22.22L74.81,12.872z M73.37,14.398l4.593,8.271l-5.409,2.424l-4.665-8.406
		l5.303-2.376L73.37,14.398z M68.554,27.435l1.68-0.753l-0.028,32.589l-1.46,0.654l0.025-32.491H68.554z M66.745,28.246l1.525-0.684
		l-0.025,32.587l-1.463,0.656l0.028-32.56H66.745z M44.305,37.755l-4.666-8.404l6.216-2.787l4.664,8.405L44.305,37.755z M50.5,35.41
		L50.473,68l-5.899,2.829l0.028-32.673L50.5,35.41z M46.313,26.359l1.504-0.674l4.663,8.406l-1.503,0.673L46.313,26.359z M51,35.186
		l1.5-0.67L52.475,67l-1.502,0.775L51,35.186z M48.275,25.48l1.503-0.673l4.665,8.405l-1.505,0.674L48.275,25.48z M53,34.312
		l1.491-0.62l-0.027,32.589l-1.489,0.493L53,34.312z M50.236,24.601l1.503-0.674l4.665,8.405l-1.503,0.674L50.236,24.601z
		 M54.991,33.469l1.442-0.604l0.043,32.56l-1.513,0.633L54.991,33.469z M52.197,23.722l1.505-0.674l4.664,8.405l-1.504,0.674
		L52.197,23.722z M57,32.719l1.467-0.763l-0.028,32.59l-1.462,0.655L57,32.719z M54.16,22.842l1.503-0.673l4.663,8.406l-1.502,0.673
		L54.16,22.842z M58.967,31.732l1.459-0.654L60.4,63.666l-1.462,0.655L58.967,31.732z M56.121,21.963l1.503-0.673l4.665,8.405
		l-1.505,0.674L56.121,21.963z M60.926,30.854l1.463-0.655l-0.028,32.59l-1.46,0.654L60.926,30.854z M58.082,21.084l1.503-0.674
		l4.665,8.405l-1.503,0.674L58.082,21.084z M62.889,29.974l1.46-0.654L64.32,61.909l-1.46,0.654L62.889,29.974z M60.043,20.206
		l1.505-0.674l4.664,8.405l-1.504,0.674L60.043,20.206z M64.849,29.096l1.462-0.655l-0.028,32.589l-1.462,0.655L64.849,29.096z
		 M62.006,19.326l1.503-0.674l4.664,8.406l-1.503,0.674L62.006,19.326z M63.967,18.447l1.503-0.674l4.665,8.405l-1.504,0.674
		L63.967,18.447z M65.928,17.568l1.503-0.674l4.665,8.405l-1.503,0.674L65.928,17.568z M47.845,2.103l24.757,11.926l-5.045,2.261
		L42.772,4.376L47.845,2.103z M42.176,4.644L66.96,16.557l-1.366,0.612L40.81,5.256L42.176,4.644z M40.213,5.523l24.784,11.914
		l-1.365,0.612L38.847,6.136L40.213,5.523z M38.25,6.403l24.785,11.913l-1.365,0.612L36.884,7.016L38.25,6.403z M36.287,7.283
		l24.785,11.913l-1.366,0.612L34.921,7.895L36.287,7.283z M34.325,8.163l24.785,11.914l-1.367,0.613L32.959,8.775L34.325,8.163z
		 M32.362,9.042l24.784,11.914l-1.365,0.612L30.995,9.655L32.362,9.042z M30.398,9.922l24.785,11.914l-1.366,0.612L29.033,10.535
		L30.398,9.922z M28.436,10.802l24.785,11.914l-1.37,0.614L27.093,11.404L28.436,10.802z M26.497,11.671l24.757,11.926l-1.365,0.612
		L25.131,12.284L26.497,11.671z M24.534,12.551l24.759,11.926l-1.365,0.612L23.17,13.163L24.534,12.551z M22.573,13.43
		l24.758,11.926l-1.364,0.612L21.208,14.042L22.573,13.43z M20.611,14.31L45.37,26.235l-6.077,2.724L14.536,17.033L20.611,14.31z
		 M34.268,58.004l-0.103-0.229l-2.143,0.961c2.749-3.04,3.008-9.344,0.311-15.52c-2.659-6.088-7.451-10.341-11.653-10.341
		c-0.003,0-0.005,0-0.008,0l2.19-0.982c4.187-1.829,10.136,2.487,13.253,9.623c1.519,3.477,2.142,7.093,1.755,10.182
		c-0.381,3.042-1.696,5.2-3.703,6.075L34.268,58.004z M20.68,33.376c4.009,0,8.613,4.129,11.195,10.041
		c3.115,7.134,2.243,14.427-1.945,16.258l-0.002,0.001c-0.636,0.278-1.328,0.42-2.056,0.42c-3.041,0-6.418-2.385-9.001-6.111
		l4.622-2.072c0.762,0.555,1.561,0.893,2.321,0.893c0.361,0,0.705-0.07,1.022-0.209c0.979-0.427,1.616-1.45,1.794-2.881
		c0.173-1.384-0.104-2.996-0.778-4.542c-0.131-0.299-0.276-0.583-0.428-0.859c-0.029-0.054-0.058-0.107-0.088-0.16
		c-0.149-0.259-0.306-0.507-0.471-0.742c-0.038-0.054-0.077-0.105-0.116-0.158c-0.149-0.205-0.304-0.399-0.463-0.583
		c-0.047-0.055-0.094-0.108-0.142-0.16c-0.151-0.164-0.305-0.317-0.462-0.461c-0.076-0.07-0.15-0.138-0.228-0.204
		c-0.159-0.134-0.32-0.259-0.482-0.372c-0.093-0.064-0.187-0.121-0.281-0.179c-0.108-0.066-0.216-0.125-0.325-0.182
		c-0.134-0.069-0.267-0.13-0.402-0.183c-0.121-0.048-0.241-0.09-0.361-0.125c-0.084-0.024-0.167-0.049-0.25-0.066
		c-0.179-0.038-0.357-0.058-0.532-0.064c-0.026-0.001-0.054-0.01-0.08-0.01c-0.042,0-0.081,0.01-0.122,0.012
		c-0.1,0.004-0.197,0.014-0.294,0.029c-0.055,0.008-0.11,0.015-0.164,0.027c-0.151,0.034-0.3,0.077-0.444,0.14
		c-0.978,0.427-1.614,1.45-1.793,2.881c-0.087,0.697-0.037,1.457,0.099,2.232l-4.166,1.866c-0.9-2.771-1.24-5.542-0.935-7.983
		c0.38-3.042,1.695-5.201,3.702-6.077C19.259,33.517,19.951,33.376,20.68,33.376z M24.011,51.679l4.079-1.828
		c-0.188,1.138-0.691,1.954-1.456,2.286c-0.254,0.111-0.531,0.168-0.822,0.168C25.227,52.305,24.612,52.069,24.011,51.679z
		 M20.485,45.781c-0.109-0.683-0.145-1.349-0.068-1.962c0.156-1.249,0.688-2.131,1.498-2.485c0.121-0.053,0.248-0.091,0.378-0.119
		c0.024-0.005,0.049-0.007,0.073-0.011c0.111-0.02,0.226-0.032,0.342-0.034c0.018,0,0.037,0,0.055,0
		c0.6,0.006,1.232,0.239,1.846,0.648c0.027,0.019,0.055,0.037,0.083,0.056c0.188,0.131,0.375,0.278,0.558,0.441
		c0.028,0.025,0.056,0.052,0.084,0.078c0.184,0.17,0.366,0.353,0.541,0.553c0.003,0.003,0.006,0.006,0.009,0.009
		c0.081,0.093,0.156,0.2,0.234,0.3L20.485,45.781z M26.432,43.663c0.014,0.02,0.028,0.039,0.042,0.059
		c0.155,0.225,0.303,0.461,0.443,0.708c0.025,0.044,0.049,0.09,0.074,0.135c0.142,0.26,0.278,0.528,0.401,0.809
		c0.58,1.328,0.831,2.693,0.756,3.903L5.328,59.506c0.317-0.788,0.26-1.921-0.238-3.062c-0.49-1.12-1.304-1.963-2.119-2.265
		L26.432,43.663z M13.025,57.798c-0.294,0.129-0.766-0.128-1.153-0.677l1.453-0.651C13.457,57.089,13.358,57.651,13.025,57.798z
		 M4.304,59.965c-0.803,0.354-2.041-0.601-2.66-2.017c-0.419-0.958-0.512-1.981-0.241-2.671c0.125-0.318,0.321-0.543,0.57-0.651
		c0.115-0.051,0.24-0.076,0.372-0.076c0.794,0,1.756,0.881,2.287,2.094C5.263,58.09,5.112,59.61,4.304,59.965z M39.266,74.05
		L13.741,61.756l-2.432-4.383l0.097-0.044c0.396,0.604,0.923,1.006,1.437,1.006c0.134,0,0.263-0.026,0.382-0.079
		c0.595-0.26,0.803-1.086,0.569-1.997l4.615-2.068c2.687,3.901,6.244,6.405,9.461,6.405c0.798,0,1.557-0.155,2.257-0.461
		c0.001,0,0.001-0.001,0.002-0.001l4.24-1.901c2.173-0.95,3.593-3.248,3.996-6.471c0.397-3.177-0.239-6.886-1.793-10.444
		c-3.227-7.387-9.465-11.819-13.912-9.881l0.1,0.229l-0.102-0.228l-4.236,1.899l-0.001,0c0,0,0,0,0,0l-0.001,0
		c-2.174,0.95-3.593,3.249-3.996,6.472c-0.316,2.528,0.038,5.393,0.973,8.25l-6.282,2.815l0.024-29.701l4.455-3.721l0.345-0.155
		l25.169,12.125l4.993,8.716l-0.028,32.954l-2.62,1.974L39.266,74.05z M48.09,70.096l-4.817,2.158l1.028-0.822l4.818-2.16
		L48.09,70.096z M50.086,69.201l-0.177,0.078l1.03-0.823l0.176-0.079L50.086,69.201z M52.082,68.307l-0.176,0.078l1.029-0.824
		l0.177-0.078L52.082,68.307z M54.078,67.412l-0.176,0.078l1.021-0.817l-0.002-0.002l0.187-0.084L54.078,67.412z M56.074,66.518
		l-0.176,0.078l0.987-0.79l-0.009-0.011l0.229-0.103L56.074,66.518z M58.07,65.622l-0.176,0.079l1.074-0.845l0.133-0.06
		L58.07,65.622z M60.066,64.728l-0.176,0.079l1-0.812l0.208-0.093L60.066,64.728z M62.062,63.833l-0.176,0.079l1.09-0.853
		l0.118-0.053L62.062,63.833z M64.059,62.938l-0.176,0.079l1.048-0.833l0.161-0.072L64.059,62.938z M66.055,62.044l-0.176,0.079
		l1.067-0.843l0.142-0.063L66.055,62.044z M68.051,61.149l-0.176,0.079l1.041-0.83l0.169-0.076L68.051,61.149z M70.047,60.255
		l-0.176,0.079L70.92,59.5l0.161-0.072L70.047,60.255z M73.527,58.695l-1.66,0.744l0.99-0.808l1.703-0.764L73.527,58.695z
		 M77.972,55.136l-1.855,1.485l-3.45,1.547l0.028-32.357h-0.5l-0.028,32.582l-1.461,0.654l0.028-32.424h-0.367L78,23.201
		L77.972,55.136z"/>
	<path fill="#1D1D1B" d="M2.61,56.088C2.443,56.16,2.314,56.3,2.239,56.492c-0.125,0.317-0.092,0.75,0.088,1.156
		c0.237,0.544,0.67,0.909,1.078,0.909c0.092,0,0.181-0.019,0.261-0.054c0.167-0.071,0.294-0.21,0.37-0.401
		c0.125-0.316,0.094-0.751-0.085-1.164C3.659,56.274,3.042,55.893,2.61,56.088z M3.571,57.919c-0.026,0.065-0.061,0.107-0.105,0.127
		c-0.161,0.07-0.492-0.167-0.681-0.598c-0.123-0.28-0.155-0.583-0.08-0.773c0.018-0.045,0.05-0.104,0.107-0.129
		c0.019-0.009,0.039-0.013,0.061-0.013c0.174,0,0.454,0.227,0.62,0.605C3.615,57.422,3.646,57.729,3.571,57.919z"/>
</g>
</svg>
