<?xml version="1.0" encoding="utf-8"?>
<!-- Generator: Adobe Illustrator 16.0.4, SVG Export Plug-In . SVG Version: 6.00 Build 0)  -->
<!DOCTYPE svg PUBLIC "-//W3C//DTD SVG 1.1//EN" "http://www.w3.org/Graphics/SVG/1.1/DTD/svg11.dtd">
<svg version="1.1" id="Ebene_1" xmlns="http://www.w3.org/2000/svg" xmlns:xlink="http://www.w3.org/1999/xlink" x="0px" y="0px"
	 width="80px" height="80px" viewBox="0 0 80 80" enable-background="new 0 0 80 80" xml:space="preserve">
<g id="BGs">
</g>
<g id="thin_Lines">
	<path fill="#FFFFFF" d="M11.535,19.793c-0.707,0.31-0.883,1.416-0.401,2.517c0.389,0.894,1.086,1.494,1.735,1.494
		c0.135,0,0.264-0.027,0.384-0.079c0.249-0.108,0.44-0.32,0.554-0.612c0.202-0.516,0.145-1.228-0.152-1.905
		C13.185,20.129,12.233,19.49,11.535,19.793z M13.342,22.932c-0.066,0.168-0.163,0.281-0.289,0.336
		c-0.376,0.165-1.06-0.236-1.461-1.157c-0.389-0.888-0.236-1.693,0.143-1.859c0.057-0.025,0.119-0.037,0.185-0.037
		c0.376,0,0.936,0.41,1.278,1.195C13.439,21.959,13.494,22.543,13.342,22.932z"/>
	<path fill="#FFFFFF" d="M38.729,33.335c-0.36,0.157-0.592,0.521-0.655,1.026c-0.057,0.458,0.033,0.987,0.253,1.49
		c0.389,0.894,1.086,1.495,1.735,1.495c0.135,0,0.264-0.026,0.384-0.079c0.707-0.31,0.883-1.415,0.402-2.517
		C40.377,33.67,39.425,33.034,38.729,33.335z M40.246,36.809c-0.377,0.164-1.06-0.236-1.461-1.158
		c-0.185-0.423-0.262-0.859-0.215-1.228c0.023-0.187,0.101-0.517,0.359-0.63c0.056-0.024,0.119-0.037,0.185-0.037
		c0.375,0,0.935,0.41,1.277,1.194C40.741,35.753,40.673,36.622,40.246,36.809z"/>
	<path fill="#FFFFFF" d="M38.699,67.863c-0.36,0.156-0.592,0.521-0.655,1.025c-0.057,0.457,0.033,0.986,0.253,1.489
		c0.389,0.896,1.085,1.495,1.734,1.495c0.136,0,0.266-0.025,0.385-0.079c0.248-0.106,0.439-0.317,0.553-0.608
		c0.203-0.516,0.146-1.229-0.15-1.905C40.347,68.198,39.39,67.564,38.699,67.863z M40.504,71.003
		c-0.065,0.167-0.162,0.279-0.288,0.334c-0.377,0.162-1.06-0.233-1.461-1.157c-0.185-0.423-0.262-0.859-0.215-1.229
		c0.023-0.188,0.101-0.518,0.359-0.631c0.057-0.023,0.119-0.036,0.185-0.036c0.375,0,0.934,0.411,1.277,1.196
		C40.602,70.031,40.657,70.614,40.504,71.003z"/>
	<path fill="#FFFFFF" d="M74.811,12.872L47.876-0.103L12.65,15.686l-5.51,4.553L7.115,50.951l-5.643,2.527
		c-0.559,0.244-0.985,0.709-1.233,1.342c-0.393,1.003-0.295,2.359,0.26,3.629c0.916,2.096,2.818,3.31,4.314,2.656l5.03-2.256
		l2.458,4.432l26.935,12.974l35.227-15.787l5.51-4.37L80,22.22L74.811,12.872z M73.37,14.398l4.593,8.271l-5.408,2.424l-4.666-8.406
		l5.303-2.376L73.37,14.398z M68.555,27.435l1.68-0.753l-0.028,32.589l-1.46,0.653l0.025-32.491L68.555,27.435L68.555,27.435z
		 M66.745,28.246l1.524-0.684l-0.024,32.586l-1.463,0.656l0.028-32.56L66.745,28.246L66.745,28.246z M44.305,37.755l-4.666-8.404
		l6.216-2.787l4.664,8.405L44.305,37.755z M50.5,35.41L50.473,68l-5.898,2.829l0.027-32.673L50.5,35.41z M46.312,26.359l1.504-0.674
		l4.664,8.406l-1.504,0.673L46.312,26.359z M51,35.186l1.5-0.67L52.475,67l-1.502,0.775L51,35.186z M48.275,25.48l1.502-0.673
		l4.666,8.405l-1.506,0.674L48.275,25.48z M53,34.312l1.491-0.62l-0.027,32.589l-1.489,0.492L53,34.312z M50.236,24.601l1.502-0.674
		l4.666,8.405L54.9,33.006L50.236,24.601z M54.991,33.469l1.442-0.604l0.043,32.56l-1.514,0.634L54.991,33.469z M52.197,23.722
		l1.505-0.674l4.664,8.405l-1.505,0.674L52.197,23.722z M57,32.719l1.467-0.763l-0.027,32.59l-1.463,0.655L57,32.719z M54.16,22.842
		l1.503-0.673l4.663,8.406l-1.502,0.673L54.16,22.842z M58.967,31.732l1.459-0.654L60.4,63.666l-1.463,0.654L58.967,31.732z
		 M56.121,21.963l1.503-0.673l4.665,8.405l-1.505,0.674L56.121,21.963z M60.926,30.854l1.463-0.655l-0.027,32.59L60.9,63.443
		L60.926,30.854z M58.082,21.084l1.503-0.674l4.665,8.405l-1.503,0.674L58.082,21.084z M62.889,29.974l1.461-0.654L64.32,61.909
		l-1.461,0.653L62.889,29.974z M60.043,20.206l1.505-0.674l4.664,8.405l-1.504,0.674L60.043,20.206z M64.85,29.096l1.461-0.655
		L66.283,61.03l-1.463,0.655L64.85,29.096z M62.006,19.326l1.503-0.674l4.664,8.406l-1.503,0.674L62.006,19.326z M63.967,18.447
		l1.504-0.674l4.664,8.405l-1.504,0.674L63.967,18.447z M65.928,17.568l1.504-0.674l4.664,8.405l-1.503,0.674L65.928,17.568z
		 M47.846,2.103l24.756,11.926l-5.045,2.261L42.771,4.376L47.846,2.103z M42.176,4.644L66.96,16.557l-1.366,0.612L40.811,5.256
		L42.176,4.644z M40.213,5.523l24.784,11.914l-1.365,0.612L38.847,6.136L40.213,5.523z M38.25,6.403l24.785,11.913l-1.365,0.612
		L36.884,7.016L38.25,6.403z M36.287,7.283l24.785,11.913l-1.366,0.612L34.921,7.895L36.287,7.283z M34.325,8.163l24.784,11.914
		l-1.366,0.613L32.959,8.775L34.325,8.163z M32.362,9.042l24.785,11.914l-1.365,0.612L30.995,9.655L32.362,9.042z M30.398,9.922
		l24.786,11.914l-1.367,0.612L29.033,10.535L30.398,9.922z M28.436,10.802l24.785,11.914l-1.369,0.614L27.093,11.404L28.436,10.802z
		 M26.497,11.671l24.757,11.926l-1.365,0.612L25.131,12.284L26.497,11.671z M24.534,12.551l24.759,11.926l-1.365,0.612L23.17,13.163
		L24.534,12.551z M22.573,13.43l24.758,11.926l-1.364,0.612L21.208,14.042L22.573,13.43z M20.611,14.31L45.37,26.235l-6.077,2.724
		L14.536,17.033L20.611,14.31z M34.268,58.004l-0.103-0.229l-2.143,0.961c2.749-3.041,3.008-9.344,0.311-15.521
		c-2.659-6.088-7.451-10.341-11.653-10.341c-0.003,0-0.005,0-0.008,0l2.19-0.982c4.187-1.829,10.136,2.487,13.253,9.623
		c1.519,3.478,2.142,7.094,1.755,10.183c-0.381,3.042-1.696,5.2-3.703,6.075L34.268,58.004z M20.68,33.376
		c4.009,0,8.613,4.129,11.195,10.041c3.115,7.134,2.243,14.427-1.945,16.258l-0.002,0.001c-0.636,0.278-1.328,0.42-2.056,0.42
		c-3.041,0-6.418-2.385-9.001-6.111l4.622-2.071c0.762,0.555,1.561,0.894,2.321,0.894c0.361,0,0.705-0.07,1.022-0.209
		c0.979-0.428,1.616-1.451,1.794-2.882c0.173-1.384-0.104-2.996-0.778-4.542c-0.131-0.299-0.276-0.583-0.428-0.859
		c-0.029-0.054-0.058-0.106-0.088-0.159c-0.149-0.259-0.306-0.507-0.471-0.742c-0.038-0.054-0.077-0.104-0.116-0.158
		c-0.149-0.205-0.304-0.399-0.463-0.583c-0.047-0.055-0.094-0.107-0.142-0.16c-0.151-0.164-0.305-0.316-0.462-0.461
		c-0.076-0.07-0.15-0.138-0.228-0.203c-0.159-0.135-0.32-0.26-0.482-0.373c-0.093-0.063-0.187-0.121-0.281-0.179
		c-0.108-0.065-0.216-0.125-0.325-0.182c-0.134-0.069-0.267-0.13-0.402-0.183c-0.121-0.049-0.241-0.091-0.361-0.125
		c-0.084-0.024-0.167-0.05-0.25-0.066c-0.179-0.038-0.357-0.059-0.532-0.064c-0.026-0.001-0.054-0.01-0.08-0.01
		c-0.042,0-0.081,0.01-0.122,0.012c-0.1,0.004-0.197,0.014-0.294,0.029c-0.055,0.008-0.11,0.016-0.164,0.027
		c-0.151,0.033-0.3,0.076-0.444,0.14c-0.978,0.427-1.614,1.45-1.793,2.881c-0.087,0.697-0.037,1.457,0.099,2.231l-4.166,1.867
		c-0.9-2.771-1.24-5.543-0.935-7.983c0.38-3.042,1.695-5.201,3.702-6.077C19.259,33.517,19.951,33.376,20.68,33.376z M24.011,51.68
		l4.079-1.828c-0.188,1.138-0.691,1.953-1.456,2.285c-0.254,0.111-0.531,0.168-0.822,0.168
		C25.227,52.305,24.612,52.068,24.011,51.68z M20.485,45.781c-0.109-0.684-0.145-1.35-0.068-1.963
		c0.156-1.248,0.688-2.131,1.498-2.484c0.121-0.053,0.248-0.091,0.378-0.119c0.024-0.005,0.049-0.007,0.073-0.011
		c0.111-0.021,0.226-0.032,0.342-0.034c0.018,0,0.037,0,0.055,0c0.6,0.006,1.232,0.239,1.846,0.648
		c0.027,0.019,0.055,0.037,0.083,0.056c0.188,0.131,0.375,0.278,0.558,0.44c0.028,0.025,0.056,0.053,0.084,0.078
		c0.184,0.17,0.366,0.354,0.541,0.553c0.003,0.004,0.006,0.007,0.009,0.01c0.081,0.093,0.156,0.199,0.234,0.3L20.485,45.781z
		 M26.432,43.663c0.014,0.021,0.028,0.039,0.042,0.06c0.155,0.225,0.303,0.461,0.443,0.707c0.025,0.045,0.049,0.09,0.074,0.135
		c0.142,0.261,0.278,0.528,0.401,0.81c0.58,1.328,0.831,2.692,0.756,3.903L5.328,59.506c0.317-0.788,0.26-1.921-0.238-3.062
		C4.6,55.324,3.786,54.48,2.971,54.18L26.432,43.663z M13.025,57.798c-0.294,0.129-0.766-0.128-1.153-0.677l1.453-0.651
		C13.457,57.089,13.358,57.65,13.025,57.798z M4.304,59.965c-0.803,0.354-2.041-0.601-2.66-2.017
		c-0.419-0.958-0.512-1.981-0.241-2.671c0.125-0.318,0.321-0.543,0.57-0.651c0.115-0.051,0.24-0.076,0.372-0.076
		c0.794,0,1.756,0.882,2.287,2.095C5.263,58.09,5.112,59.609,4.304,59.965z M39.266,74.05L13.741,61.756l-2.432-4.383l0.097-0.044
		c0.396,0.604,0.923,1.006,1.437,1.006c0.134,0,0.263-0.026,0.382-0.079c0.595-0.26,0.803-1.086,0.569-1.997l4.615-2.067
		c2.687,3.9,6.244,6.404,9.461,6.404c0.798,0,1.557-0.154,2.257-0.461c0.001,0,0.001-0.001,0.002-0.001l4.24-1.901
		c2.173-0.949,3.593-3.248,3.996-6.471c0.397-3.177-0.239-6.886-1.793-10.443c-3.227-7.387-9.465-11.819-13.912-9.881l0.1,0.229
		l-0.102-0.228l-4.236,1.899h-0.001l0,0H18.42c-2.174,0.95-3.593,3.249-3.996,6.472c-0.316,2.528,0.038,5.393,0.973,8.25
		l-6.282,2.815l0.024-29.701l4.455-3.721l0.345-0.155l25.169,12.125l4.994,8.716l-0.028,32.954l-2.62,1.975L39.266,74.05z
		 M48.09,70.096l-4.816,2.158l1.027-0.822l4.818-2.16L48.09,70.096z M50.086,69.201l-0.177,0.078l1.03-0.823l0.176-0.079
		L50.086,69.201z M52.082,68.307l-0.176,0.078l1.029-0.824l0.176-0.078L52.082,68.307z M54.078,67.412l-0.176,0.078l1.021-0.817
		l-0.002-0.002l0.187-0.084L54.078,67.412z M56.074,66.518l-0.176,0.078l0.986-0.789l-0.009-0.012l0.229-0.104L56.074,66.518z
		 M58.07,65.622l-0.176,0.079l1.073-0.846l0.134-0.06L58.07,65.622z M60.066,64.729l-0.176,0.078l1-0.812l0.207-0.093L60.066,64.729
		z M62.062,63.833l-0.176,0.079l1.09-0.854l0.117-0.053L62.062,63.833z M64.059,62.938l-0.176,0.08l1.049-0.834l0.16-0.072
		L64.059,62.938z M66.055,62.044l-0.176,0.079l1.066-0.843l0.143-0.063L66.055,62.044z M68.051,61.148l-0.176,0.08l1.041-0.83
		l0.169-0.076L68.051,61.148z M70.047,60.255l-0.176,0.079L70.92,59.5l0.161-0.072L70.047,60.255z M73.527,58.695l-1.66,0.744
		l0.99-0.809l1.703-0.764L73.527,58.695z M77.973,55.136l-1.855,1.485l-3.45,1.547l0.028-32.357h-0.5l-0.028,32.582l-1.461,0.654
		l0.028-32.424h-0.367L78,23.201L77.973,55.136z"/>
	<path fill="#FFFFFF" d="M2.61,56.088C2.443,56.16,2.314,56.3,2.239,56.492c-0.125,0.316-0.092,0.75,0.088,1.156
		c0.237,0.543,0.67,0.908,1.078,0.908c0.092,0,0.181-0.019,0.261-0.054c0.167-0.071,0.294-0.21,0.37-0.401
		c0.125-0.315,0.094-0.75-0.085-1.164C3.659,56.273,3.042,55.893,2.61,56.088z M3.571,57.919c-0.026,0.065-0.061,0.106-0.105,0.127
		c-0.161,0.07-0.492-0.167-0.681-0.598c-0.123-0.28-0.155-0.583-0.08-0.773c0.018-0.045,0.05-0.104,0.107-0.129
		c0.019-0.009,0.039-0.013,0.061-0.013c0.174,0,0.454,0.227,0.62,0.605C3.615,57.422,3.646,57.729,3.571,57.919z"/>
</g>
</svg>
