<?xml version="1.0" encoding="utf-8"?>
<!-- Generator: Adobe Illustrator 16.0.4, SVG Export Plug-In . SVG Version: 6.00 Build 0)  -->
<!DOCTYPE svg PUBLIC "-//W3C//DTD SVG 1.1//EN" "http://www.w3.org/Graphics/SVG/1.1/DTD/svg11.dtd">
<svg version="1.1" id="Ebene_1" xmlns="http://www.w3.org/2000/svg" xmlns:xlink="http://www.w3.org/1999/xlink" x="0px" y="0px"
	 width="24px" height="10px" viewBox="0 0 24 10" enable-background="new 0 0 24 10" xml:space="preserve">
<g>
	<g>
		<rect id="path-1" x="1" y="4" fill="#767676" width="2" height="1"/>
	</g>
	<g>
		<rect id="path-2" x="4" y="6" fill="#767676" width="2" height="1"/>
	</g>
	<g>
		<rect id="path-3" x="3" y="5" fill="#767676" width="1" height="1"/>
	</g>
	<g>
		<rect id="path-4" x="6" y="5" fill="#767676" width="1" height="1"/>
	</g>
	<g>
		<rect id="path-5" y="5" fill="#767676" width="1" height="1"/>
	</g>
</g>
<g enable-background="new    ">
	<path fill="#767676" d="M11.008,3.84v3.616h0.873V8H9.24V7.456h1.112V4.384H9.48V3.84H11.008z M10.192,2.88V1.92h0.815v0.96H10.192
		z"/>
	<path fill="#767676" d="M16,5.359V8h-0.615V5.504c0-0.469-0.053-0.781-0.159-0.939c-0.106-0.156-0.302-0.235-0.584-0.235
		c-0.269,0-0.495,0.149-0.685,0.448c-0.188,0.299-0.285,0.701-0.285,1.207V8h-0.631V3.84h0.592l0.017,0.602h0.017
		c0.102-0.203,0.256-0.367,0.465-0.492c0.205-0.127,0.43-0.189,0.67-0.189c0.421,0,0.727,0.122,0.916,0.364
		C15.905,4.367,16,4.777,16,5.359z"/>
</g>
</svg>
