<?xml version="1.0" encoding="utf-8"?>
<!-- Generator: Adobe Illustrator 16.0.4, SVG Export Plug-In . SVG Version: 6.00 Build 0)  -->
<!DOCTYPE svg PUBLIC "-//W3C//DTD SVG 1.1//EN" "http://www.w3.org/Graphics/SVG/1.1/DTD/svg11.dtd">
<svg version="1.1" id="Ebene_1" xmlns="http://www.w3.org/2000/svg" xmlns:xlink="http://www.w3.org/1999/xlink" x="0px" y="0px"
	 width="24px" height="10px" viewBox="0 0 24 10" enable-background="new 0 0 24 10" xml:space="preserve">
<polygon fill="#767676" points="4,6 4,4 3.5,4 0,4 0,5 3,5 3,5.5 3,7 7,7 7,6 "/>
<g enable-background="new    ">
	<path fill="#767676" d="M9,5.84C9,4.4,9.533,3.68,10.6,3.68s1.6,0.721,1.6,2.16S11.666,8,10.6,8S9,7.279,9,5.84z M9.884,7.084
		c0.151,0.243,0.391,0.363,0.716,0.363s0.564-0.12,0.716-0.363c0.152-0.243,0.228-0.657,0.228-1.244s-0.074-1.001-0.228-1.244
		c-0.151-0.242-0.391-0.363-0.716-0.363s-0.564,0.121-0.716,0.363C9.731,4.839,9.656,5.253,9.656,5.84S9.731,6.841,9.884,7.084z"/>
	<path fill="#767676" d="M13.119,6.48V3.76h0.617v2.576c0,0.441,0.049,0.736,0.147,0.88c0.099,0.146,0.284,0.216,0.556,0.216
		c0.262,0,0.48-0.146,0.66-0.438c0.18-0.294,0.268-0.699,0.268-1.216V3.76H16v4.16h-0.594l-0.016-0.6h-0.016
		c-0.103,0.213-0.252,0.379-0.448,0.5C14.729,7.939,14.513,8,14.279,8c-0.41,0-0.707-0.114-0.889-0.344
		C13.209,7.426,13.119,7.035,13.119,6.48z"/>
	<path fill="#767676" d="M18.552,3.92H20v0.552h-1.448V6.72c0,0.3,0.044,0.498,0.132,0.597c0.088,0.1,0.26,0.147,0.516,0.147
		c0.268,0,0.508-0.048,0.721-0.144v0.56C19.664,7.96,19.397,8,19.119,8c-0.446,0-0.76-0.087-0.936-0.26
		C18.008,7.566,17.92,7.253,17.92,6.8V4.472h-0.801V3.92h0.801V2.4h0.633L18.552,3.92L18.552,3.92z"/>
</g>
</svg>
