<?xml version="1.0" encoding="utf-8"?>
<!-- Generator: Adobe Illustrator 16.0.4, SVG Export Plug-In . SVG Version: 6.00 Build 0)  -->
<!DOCTYPE svg PUBLIC "-//W3C//DTD SVG 1.1//EN" "http://www.w3.org/Graphics/SVG/1.1/DTD/svg11.dtd">
<svg version="1.1" id="Ebene_1" xmlns="http://www.w3.org/2000/svg" xmlns:xlink="http://www.w3.org/1999/xlink" x="0px" y="0px"
	 width="16px" height="16px" viewBox="0 0 16 16" enable-background="new 0 0 16 16" xml:space="preserve">
<path fill="#1D1D1B" d="M12.75,15.625c-0.117,0-0.233-0.041-0.325-0.12L8.25,11.927l-4.175,3.578
	c-0.148,0.127-0.484,0.155-0.659,0.074C3.238,15.498,3,15.32,3,15.125v-13.5C3,1.349,3.474,1,3.75,1h9C13.026,1,13,1.349,13,1.625
	v13.5c0,0.195,0.012,0.373-0.166,0.454C12.768,15.61,12.821,15.625,12.75,15.625z M8.25,10.768c0.116,0,0.106,0.04,0.2,0.121
	L12,14.038V2H4v12.038l3.8-3.149C7.894,10.808,8.134,10.768,8.25,10.768z"/>
</svg>
