<?xml version="1.0" encoding="utf-8"?>
<!-- Generator: Adobe Illustrator 16.0.4, SVG Export Plug-In . SVG Version: 6.00 Build 0)  -->
<!DOCTYPE svg PUBLIC "-//W3C//DTD SVG 1.1//EN" "http://www.w3.org/Graphics/SVG/1.1/DTD/svg11.dtd">
<svg version="1.1" id="Ebene_1" xmlns="http://www.w3.org/2000/svg" xmlns:xlink="http://www.w3.org/1999/xlink" x="0px" y="0px"
	 width="10px" height="10px" viewBox="0 0 10 10" enable-background="new 0 0 10 10" xml:space="preserve">
<path fill="#1D1D1B" d="M7.5,9C7.389,9,7.278,8.963,7.188,8.891L5,7.14l-2.188,1.75c-0.15,0.12-0.355,0.144-0.529,0.06
	C2.11,8.867,2,8.692,2,8.5v-7C2,1.224,2.224,1,2.5,1h5C7.776,1,8,1.224,8,1.5v7c0,0.192-0.11,0.367-0.283,0.451
	C7.647,8.984,7.573,9,7.5,9z M5,6c0.11,0,0.221,0.037,0.312,0.109L7,7.459V2H3v5.459l1.688-1.35C4.779,6.037,4.89,6,5,6z"/>
</svg>
