<?xml version="1.0" encoding="utf-8"?>
<!-- Generator: Adobe Illustrator 16.0.4, SVG Export Plug-In . SVG Version: 6.00 Build 0)  -->
<!DOCTYPE svg PUBLIC "-//W3C//DTD SVG 1.1//EN" "http://www.w3.org/Graphics/SVG/1.1/DTD/svg11.dtd">
<svg version="1.1" id="Ebene_1" xmlns="http://www.w3.org/2000/svg" xmlns:xlink="http://www.w3.org/1999/xlink" x="0px" y="0px"
	 width="10px" height="10px" viewBox="0 0 10 10" enable-background="new 0 0 10 10" xml:space="preserve">
<path fill="#1D1D1B" d="M8.562,10.062c-0.117,0-0.233-0.041-0.325-0.121L5.062,7.221L1.888,9.942
	c-0.148,0.127-0.391,0.155-0.565,0.075C1.145,9.935,1,9.758,1,9.562v-9C1,0.286,1.286,0,1.562,0h7C8.839,0,9,0.286,9,0.562v9
	c0,0.195-0.082,0.373-0.26,0.454C8.674,10.047,8.634,10.062,8.562,10.062z M5.062,6.062c0.116,0,0.2,0.04,0.294,0.121L8,8.476V1H2
	v7.476l2.706-2.292C4.8,6.103,4.946,6.062,5.062,6.062z"/>
</svg>
