<?xml version="1.0" encoding="utf-8"?>
<!-- Generator: Adobe Illustrator 16.0.4, SVG Export Plug-In . SVG Version: 6.00 Build 0)  -->
<!DOCTYPE svg PUBLIC "-//W3C//DTD SVG 1.1//EN" "http://www.w3.org/Graphics/SVG/1.1/DTD/svg11.dtd">
<svg version="1.1" id="Ebene_1" xmlns="http://www.w3.org/2000/svg" xmlns:xlink="http://www.w3.org/1999/xlink" x="0px" y="0px"
	 width="10px" height="10px" viewBox="0 0 10 10" enable-background="new 0 0 10 10" xml:space="preserve">
<g>
	<path fill="#FFFFFF" d="M7.5,9h-6C1.225,9,1,9.225,1,9.5S1.225,10,1.5,10h6C7.775,10,8,9.775,8,9.5S7.775,9,7.5,9z"/>
	<path fill="#FFFFFF" d="M4.146,8.354C4.24,8.447,4.367,8.5,4.5,8.5s0.26-0.053,0.354-0.146l2.5-2.5
		c0.195-0.194,0.195-0.512,0-0.707c-0.194-0.195-0.512-0.195-0.707,0L5,6.793V0.5C5,0.225,4.775,0,4.5,0S4,0.225,4,0.5v6.293
		L2.354,5.146c-0.195-0.195-0.512-0.195-0.707,0s-0.195,0.512,0,0.708L4.146,8.354z"/>
</g>
</svg>
