<?xml version="1.0" encoding="utf-8"?>
<!-- Generator: Adobe Illustrator 16.0.4, SVG Export Plug-In . SVG Version: 6.00 Build 0)  -->
<!DOCTYPE svg PUBLIC "-//W3C//DTD SVG 1.1//EN" "http://www.w3.org/Graphics/SVG/1.1/DTD/svg11.dtd">
<svg version="1.1" id="Ebene_1" xmlns="http://www.w3.org/2000/svg" xmlns:xlink="http://www.w3.org/1999/xlink" x="0px" y="0px"
	 width="14px" height="14px" viewBox="0 0 14 14" enable-background="new 0 0 14 14" xml:space="preserve">
<path fill="#1D1D1B" d="M10.5,12h-7C3.224,12,3,11.776,3,11.5v-9C3,2.224,3.224,2,3.5,2h7C10.776,2,11,2.224,11,2.5v9
	C11,11.776,10.776,12,10.5,12z M4,11h6V3H4V11z"/>
<path fill="#1D1D1B" d="M7,7c0.552,0,1,0.448,1,1S7.552,9,7,9S6,8.552,6,8S6.448,7,7,7 M7,6C5.897,6,5,6.897,5,8s0.897,2,2,2
	s2-0.897,2-2S8.103,6,7,6L7,6z"/>
</svg>
