<?xml version="1.0" encoding="utf-8"?>
<!-- Generator: Adobe Illustrator 16.0.4, SVG Export Plug-In . SVG Version: 6.00 Build 0)  -->
<!DOCTYPE svg PUBLIC "-//W3C//DTD SVG 1.1//EN" "http://www.w3.org/Graphics/SVG/1.1/DTD/svg11.dtd">
<svg version="1.1" id="Ebene_1" xmlns="http://www.w3.org/2000/svg" xmlns:xlink="http://www.w3.org/1999/xlink" x="0px" y="0px"
	 width="16px" height="16px" viewBox="0 0 16 16" enable-background="new 0 0 16 16" xml:space="preserve">
<g>
	<path fill="#1D1D1B" d="M6.5,11h-3C2.121,11,1,9.878,1,8.5S2.121,6,3.5,6h3C6.776,6,7,5.776,7,5.5S6.776,5,6.5,5h-3
		C1.57,5,0,6.57,0,8.5S1.57,12,3.5,12h3C6.776,12,7,11.776,7,11.5S6.776,11,6.5,11z"/>
	<path fill="#1D1D1B" d="M12.5,5h-3C9.224,5,9,5.224,9,5.5S9.224,6,9.5,6h3C13.879,6,15,7.122,15,8.5S13.879,11,12.5,11h-3
		C9.224,11,9,11.224,9,11.5S9.224,12,9.5,12h3c1.93,0,3.5-1.57,3.5-3.5S14.43,5,12.5,5z"/>
	<path fill="#1D1D1B" d="M4,8.5C4,8.775,4.225,9,4.5,9h7C11.775,9,12,8.775,12,8.5S11.775,8,11.5,8h-7C4.225,8,4,8.225,4,8.5z"/>
</g>
</svg>
