<?xml version="1.0" encoding="utf-8"?>
<!-- Generator: Adobe Illustrator 16.0.4, SVG Export Plug-In . SVG Version: 6.00 Build 0)  -->
<!DOCTYPE svg PUBLIC "-//W3C//DTD SVG 1.1//EN" "http://www.w3.org/Graphics/SVG/1.1/DTD/svg11.dtd">
<svg version="1.1" id="Ebene_1" xmlns="http://www.w3.org/2000/svg" xmlns:xlink="http://www.w3.org/1999/xlink" x="0px" y="0px"
	 width="16px" height="16px" viewBox="0 0 16 16" enable-background="new 0 0 16 16" xml:space="preserve">
<g>
	<path fill="#1D1D1B" d="M15.5,3h-15C0.224,3,0,3.224,0,3.5v8C0,11.776,0.224,12,0.5,12h15c0.276,0,0.5-0.224,0.5-0.5v-8
		C16,3.224,15.776,3,15.5,3z M15,11H1V4h14V11z"/>
	<polygon fill="#1D1D1B" points="4,10 5,10 5,8 7,8 7,7 5,7 5,5 4,5 4,7 2,7 2,8 4,8 	"/>
	<circle fill="#1D1D1B" cx="9.5" cy="8.5" r="0.875"/>
	<circle fill="#1D1D1B" cx="12.5" cy="6.5" r="0.875"/>
</g>
</svg>
