<?xml version="1.0" encoding="utf-8"?>
<!-- Generator: Adobe Illustrator 16.0.4, SVG Export Plug-In . SVG Version: 6.00 Build 0)  -->
<!DOCTYPE svg PUBLIC "-//W3C//DTD SVG 1.1//EN" "http://www.w3.org/Graphics/SVG/1.1/DTD/svg11.dtd">
<svg version="1.1" id="Ebene_1" xmlns="http://www.w3.org/2000/svg" xmlns:xlink="http://www.w3.org/1999/xlink" x="0px" y="0px"
	 width="16px" height="16px" viewBox="0 0 16 16" enable-background="new 0 0 16 16" xml:space="preserve">
<path fill="#1D1D1B" d="M6.896,10.584c-0.098,0.098-0.146,0.194-0.146,0.322s0.049,0.24,0.146,0.338
	c0.195,0.195,0.512,0.188,0.707-0.008l2.5-2.504c0.094-0.094,0.146-0.223,0.146-0.355s-0.053-0.261-0.146-0.354l-2.5-2.5
	c-0.195-0.195-0.512-0.196-0.707,0s-0.195,0.574,0,0.77L8.543,8H1.5C1.225,8,1,8.225,1,8.5S1.225,9,1.5,9h7.043L6.896,10.584z"/>
<path fill="#1D1D1B" d="M15.987,4.435c-0.003-0.021-0.007-0.04-0.013-0.061c-0.022-0.084-0.059-0.165-0.121-0.228l-4-4
	c-0.062-0.063-0.143-0.099-0.228-0.122c-0.021-0.005-0.039-0.009-0.061-0.012C11.543,0.01,11.522,0,11.5,0h-7C4.224,0,4,0.224,4,0.5
	V7h1V1h6v3.5C11,4.776,11.224,5,11.5,5H15v10H5v-5H4v5.5C4,15.776,4.224,16,4.5,16h11c0.276,0,0.5-0.224,0.5-0.5v-11
	C16,4.478,15.99,4.457,15.987,4.435z M12,4V1.707L14.293,4H12z"/>
</svg>
