<?xml version="1.0" encoding="utf-8"?>
<!-- Generator: Adobe Illustrator 16.0.4, SVG Export Plug-In . SVG Version: 6.00 Build 0)  -->
<!DOCTYPE svg PUBLIC "-//W3C//DTD SVG 1.1//EN" "http://www.w3.org/Graphics/SVG/1.1/DTD/svg11.dtd">
<svg version="1.1" id="Ebene_1" xmlns="http://www.w3.org/2000/svg" xmlns:xlink="http://www.w3.org/1999/xlink" x="0px" y="0px"
	 width="16px" height="16px" viewBox="0 0 16 16" enable-background="new 0 0 16 16" xml:space="preserve">
<path fill="#1D1D1B" d="M12.291,4.291c-2.046,0-3.71,1.664-3.71,3.709c0,1.042,0.434,1.983,1.128,2.658H6.292
	C6.985,9.983,7.419,9.042,7.419,8c0-2.045-1.664-3.709-3.709-3.709C1.664,4.291,0,5.955,0,8s1.664,3.709,3.71,3.709h8.581
	C14.336,11.709,16,10.045,16,8S14.336,4.291,12.291,4.291z M1.051,8c0-1.466,1.192-2.658,2.659-2.658
	c1.465,0,2.657,1.192,2.657,2.658s-1.192,2.658-2.657,2.658C2.243,10.658,1.051,9.466,1.051,8z M12.291,10.658
	c-1.466,0-2.658-1.192-2.658-2.658s1.192-2.658,2.658-2.658S14.949,6.534,14.949,8S13.757,10.658,12.291,10.658z"/>
</svg>
