<?xml version="1.0" encoding="utf-8"?>
<!-- Generator: Adobe Illustrator 16.0.4, SVG Export Plug-In . SVG Version: 6.00 Build 0)  -->
<!DOCTYPE svg PUBLIC "-//W3C//DTD SVG 1.1//EN" "http://www.w3.org/Graphics/SVG/1.1/DTD/svg11.dtd">
<svg version="1.1" id="Ebene_1" xmlns="http://www.w3.org/2000/svg" xmlns:xlink="http://www.w3.org/1999/xlink" x="0px" y="0px"
	 width="16px" height="16px" viewBox="0 0 16 16" enable-background="new 0 0 16 16" xml:space="preserve">
<path fill="#1D1D1B" d="M13.5,11H1.707l2.198-2.199c0.195-0.195,0.195-0.512,0-0.707s-0.512-0.195-0.707,0l-3.052,3.053
	c-0.015,0.015-0.021,0.034-0.033,0.05c-0.027,0.036-0.057,0.07-0.074,0.112c-0.051,0.123-0.051,0.26,0,0.383
	c0.018,0.042,0.047,0.077,0.074,0.112c0.013,0.016,0.019,0.035,0.033,0.05l3.052,3.053c0.098,0.098,0.226,0.146,0.354,0.146
	s0.256-0.049,0.354-0.146c0.195-0.195,0.195-0.512,0-0.707L1.707,12H13.5c0.275,0,0.5-0.225,0.5-0.5S13.775,11,13.5,11z"/>
<path fill="#1D1D1B" d="M2.501,5h11.793l-2.198,2.163c-0.195,0.192-0.195,0.502,0,0.694c0.195,0.193,0.512,0.192,0.707-0.001
	l3.052-3.008c0.015-0.014,0.021-0.034,0.033-0.049c0.027-0.035,0.057-0.069,0.074-0.111c0.051-0.121,0.051-0.256,0-0.377
	c-0.018-0.042-0.047-0.076-0.074-0.111c-0.013-0.015-0.019-0.035-0.033-0.049l-3.052-3.007C12.705,1.048,12.577,1,12.449,1
	s-0.256,0.048-0.354,0.145c-0.195,0.192-0.195,0.5,0,0.692L14.294,4H2.501c-0.275,0-0.5,0.229-0.5,0.5S2.226,5,2.501,5z"/>
</svg>
