<?xml version="1.0" encoding="utf-8"?>
<!-- Generator: Adobe Illustrator 16.0.4, SVG Export Plug-In . SVG Version: 6.00 Build 0)  -->
<!DOCTYPE svg PUBLIC "-//W3C//DTD SVG 1.1//EN" "http://www.w3.org/Graphics/SVG/1.1/DTD/svg11.dtd">
<svg version="1.1" id="Ebene_1" xmlns="http://www.w3.org/2000/svg" xmlns:xlink="http://www.w3.org/1999/xlink" x="0px" y="0px"
	 width="16px" height="16px" viewBox="0 0 16 16" enable-background="new 0 0 16 16" xml:space="preserve">
<g>
	<path fill="#1D1D1B" d="M13,8.25c0.128,0,0.256-0.049,0.354-0.146c0.195-0.195,0.195-0.512,0-0.707l-2.5-2.5
		C10.76,4.803,10.633,4.75,10.5,4.75s-0.26,0.053-0.354,0.146l-2.5,2.5c-0.195,0.195-0.195,0.512,0,0.707s0.512,0.195,0.707,0
		L10,6.458V13.5c0,0.275,0.225,0.5,0.5,0.5s0.5-0.225,0.5-0.5V6.457l1.646,1.647C12.744,8.201,12.872,8.25,13,8.25z"/>
	<path fill="#1D1D1B" d="M14.5,2h-13C1.224,2,1,2.224,1,2.5v7C1,9.775,1.224,10,1.5,10h6.219H8h0.594V9H8H7.719H2V3h12v6h-0.406H13
		h-0.781v1H13h0.594H14.5c0.275,0,0.5-0.225,0.5-0.5v-7C15,2.224,14.775,2,14.5,2z"/>
</g>
</svg>
