<?xml version="1.0" encoding="utf-8"?>
<!-- Generator: Adobe Illustrator 16.0.4, SVG Export Plug-In . SVG Version: 6.00 Build 0)  -->
<!DOCTYPE svg PUBLIC "-//W3C//DTD SVG 1.1//EN" "http://www.w3.org/Graphics/SVG/1.1/DTD/svg11.dtd">
<svg version="1.1" id="Ebene_1" xmlns="http://www.w3.org/2000/svg" xmlns:xlink="http://www.w3.org/1999/xlink" x="0px" y="0px"
	 width="10px" height="10px" viewBox="0 0 10 10" enable-background="new 0 0 10 10" xml:space="preserve">
<path fill="#1D1D1B" d="M5,5.5C3.622,5.5,2.5,4.378,2.5,3S3.622,0.5,5,0.5c1.378,0,2.5,1.121,2.5,2.5S6.379,5.5,5,5.5z M5,1.5
	C4.173,1.5,3.5,2.173,3.5,3c0,0.827,0.673,1.5,1.5,1.5c0.827,0,1.5-0.673,1.5-1.5C6.5,2.173,5.827,1.5,5,1.5z"/>
<path fill="#1D1D1B" d="M8.5,10C8.224,10,8,9.776,8,9.5C8,8.122,6.654,7,5,7S2,8.122,2,9.5C2,9.776,1.776,10,1.5,10S1,9.776,1,9.5
	C1,7.57,2.794,6,5,6s4,1.57,4,3.5C9,9.776,8.776,10,8.5,10z"/>
</svg>
